<svg width="595" height="409" viewBox="0 0 595 409" fill="none" xmlns="http://www.w3.org/2000/svg">
<path d="M498.788 62.3191C498.428 62.5413 498.206 62.94 498.206 63.3633C498.202 65.8045 499.363 68.4292 501.165 70.0484C502.425 71.1773 503.931 71.777 505.519 71.777C505.783 71.777 506.02 71.7629 506.242 71.7347C507.791 71.5654 509.717 71.1702 510.87 69.6074C512.059 67.9988 512.232 65.5611 511.456 61.2149C511.558 61.0702 511.657 60.9185 511.756 60.7668C511.936 60.4881 511.996 60.1601 511.925 59.8355C511.855 59.511 511.664 59.2358 511.389 59.0559C511.11 58.876 510.782 58.816 510.461 58.8865C510.14 58.9571 509.865 59.1476 509.685 59.4228C509.512 59.6873 509.35 59.9202 509.198 60.1177C509.173 60.1495 509.145 60.1848 509.138 60.1953C505.995 64.2911 502.044 63.2398 499.966 62.252C499.578 62.0686 499.133 62.0933 498.781 62.3191H498.788ZM500.971 65.2295C503.024 65.7657 506.327 66.0197 509.318 63.5608C509.6 65.8962 509.459 67.3567 508.884 68.1328C508.418 68.7608 507.547 69.103 505.967 69.2758C504.524 69.4346 503.455 68.7819 502.813 68.2069C501.994 67.4731 501.331 66.3866 500.968 65.2295H500.971Z" fill="#EEE4F4"/>
<path d="M500.721 61.0342C500.897 61.1224 501.084 61.1683 501.278 61.1683C501.748 61.1683 502.167 60.9107 502.379 60.4909C502.527 60.1981 502.555 59.863 502.453 59.549C502.351 59.235 502.132 58.981 501.839 58.8329C499.652 57.7216 499.525 57.2771 499.522 57.2665C499.522 56.9808 500.351 56.0177 500.665 55.6543C500.88 55.4039 500.986 55.0864 500.961 54.7583C500.936 54.4302 500.785 54.1304 500.538 53.9152C500.023 53.4707 499.243 53.5271 498.795 54.0422C497.825 55.1675 496.819 56.3317 497.098 57.7357C497.363 59.0833 498.738 60.0288 500.721 61.0342Z" fill="#EEE4F4"/>
<path d="M78.2067 290.97C77.0179 289.735 75.9172 288.394 74.9365 286.99C74.7495 286.719 74.4638 286.539 74.1392 286.482C73.8147 286.426 73.4866 286.496 73.2149 286.683C72.6575 287.071 72.52 287.844 72.908 288.401C73.9628 289.915 75.1481 291.354 76.4252 292.681C76.6616 292.924 76.9755 293.058 77.3142 293.058C77.6352 293.058 77.9386 292.935 78.1714 292.712C78.4078 292.483 78.5419 292.176 78.5489 291.848C78.556 291.52 78.4325 291.206 78.2032 290.97H78.2067Z" fill="#EEE4F4"/>
<path d="M96.1029 300.538C94.4131 300.238 92.7374 299.8 91.1217 299.239C90.8112 299.13 90.4761 299.148 90.1798 299.292C89.8834 299.437 89.6576 299.687 89.5483 300.001C89.326 300.643 89.6682 301.349 90.3103 301.571C92.0495 302.174 93.8522 302.647 95.6725 302.968C95.7466 302.982 95.8171 302.986 95.8912 302.986C96.4909 302.986 97.0025 302.559 97.1048 301.966C97.1612 301.642 97.0907 301.314 96.9002 301.042C96.7097 300.77 96.4274 300.59 96.1029 300.534V300.538Z" fill="#EEE4F4"/>
<path d="M70.7348 251.581C70.4138 252.18 70.6396 252.932 71.2428 253.256C71.4263 253.352 71.6238 253.401 71.8249 253.401C72.2835 253.401 72.6998 253.151 72.915 252.748C73.4477 251.75 74.0474 250.759 74.7036 249.796C75.1163 249.944 75.5608 250.028 76.023 250.028C78.182 250.028 79.9423 248.272 79.9423 246.109C79.9423 245.428 79.7659 244.786 79.459 244.225C80.602 243.156 81.8191 242.165 83.0926 241.276C83.65 240.884 83.7876 240.115 83.3995 239.558C83.0079 239.001 82.2389 238.863 81.6815 239.251C80.2492 240.253 78.8875 241.364 77.6457 242.543C77.1518 242.317 76.605 242.19 76.0265 242.19C73.8675 242.19 72.1071 243.947 72.1071 246.109C72.1071 246.906 72.347 247.644 72.7562 248.265L72.7492 248.275L72.7351 248.3C72.0189 249.344 71.3487 250.448 70.7384 251.584L70.7348 251.581Z" fill="#EEE4F4"/>
<path d="M70.4599 277.749C70.2623 277.096 69.5709 276.725 68.9218 276.923C68.2692 277.121 67.9023 277.812 68.0963 278.461C68.629 280.225 69.3098 281.961 70.1106 283.619C70.3153 284.042 70.7527 284.317 71.2219 284.317C71.4089 284.317 71.5888 284.275 71.7581 284.194C72.372 283.897 72.6295 283.157 72.3296 282.543C71.5817 281.001 70.9538 279.385 70.4564 277.745L70.4599 277.749Z" fill="#EEE4F4"/>
<path d="M128.805 249.416C129.035 249.748 129.416 249.945 129.818 249.945C130.072 249.945 130.315 249.868 130.523 249.723C130.795 249.532 130.975 249.25 131.031 248.926C131.088 248.601 131.017 248.273 130.827 248.001C129.772 246.488 128.587 245.049 127.306 243.722C127.077 243.486 126.77 243.352 126.438 243.345C126.107 243.334 125.796 243.461 125.56 243.69C125.324 243.92 125.189 244.227 125.182 244.558C125.175 244.886 125.299 245.2 125.528 245.437C126.717 246.671 127.818 248.008 128.802 249.416H128.805Z" fill="#EEE4F4"/>
<path d="M102.548 232.915C100.714 232.883 98.8545 232.992 97.02 233.246C96.6919 233.292 96.4026 233.462 96.2051 233.726C96.0075 233.991 95.9229 234.315 95.9687 234.64C96.0534 235.247 96.579 235.705 97.1893 235.705C97.2458 235.705 97.3022 235.702 97.3587 235.695C99.0661 235.458 100.798 235.353 102.509 235.384C103.197 235.384 103.747 234.852 103.758 234.171C103.765 233.843 103.642 233.529 103.412 233.292C103.183 233.056 102.876 232.922 102.544 232.915H102.548Z" fill="#EEE4F4"/>
<path d="M91.6121 234.432C89.8446 234.968 88.109 235.649 86.4545 236.449C85.8406 236.746 85.5866 237.487 85.883 238.1C86.0876 238.524 86.525 238.799 86.9942 238.799C87.1812 238.799 87.3611 238.757 87.5304 238.675C89.0685 237.931 90.6842 237.3 92.3282 236.799C92.6422 236.703 92.9032 236.488 93.0584 236.199C93.2137 235.91 93.2454 235.575 93.1502 235.257C92.9526 234.604 92.2612 234.238 91.6121 234.435V234.432Z" fill="#EEE4F4"/>
<path d="M68.3005 274.109C68.9743 274.013 69.447 273.389 69.3518 272.715C69.1436 271.216 69.0378 269.688 69.0378 268.179C69.0378 267.977 69.0378 267.776 69.0449 267.572C69.059 266.891 68.5157 266.326 67.8313 266.312C67.154 266.305 66.5895 266.849 66.5754 267.522C66.5719 267.741 66.5684 267.956 66.5684 268.175C66.5684 269.801 66.6813 271.442 66.907 273.05C66.9917 273.657 67.5173 274.116 68.1276 274.116C68.1841 274.116 68.2405 274.112 68.297 274.105L68.3005 274.109Z" fill="#EEE4F4"/>
<path d="M70.082 255.891C69.4399 255.669 68.7344 256.011 68.5121 256.653C67.9089 258.396 67.4397 260.198 67.1151 262.012C66.9952 262.682 67.4432 263.324 68.117 263.444C68.1876 263.458 68.2616 263.462 68.3322 263.462C68.9319 263.462 69.4434 263.035 69.5458 262.442C69.8456 260.752 70.2831 259.077 70.844 257.461C71.0662 256.819 70.724 256.113 70.082 255.888V255.891Z" fill="#EEE4F4"/>
<path d="M116.208 297.751C114.666 298.495 113.05 299.127 111.41 299.624C110.757 299.822 110.391 300.513 110.585 301.162C110.743 301.688 111.22 302.04 111.766 302.04C111.886 302.04 112.006 302.023 112.126 301.988C113.894 301.451 115.629 300.774 117.287 299.973C117.901 299.677 118.159 298.936 117.862 298.326C117.566 297.712 116.825 297.454 116.215 297.751H116.208Z" fill="#EEE4F4"/>
<path d="M106.376 300.728C104.683 300.965 102.954 301.067 101.211 301.035C100.541 301.035 99.9908 301.579 99.9767 302.249C99.9661 302.93 100.509 303.494 101.19 303.505C101.409 303.508 101.628 303.512 101.85 303.512C103.473 303.512 105.11 303.399 106.718 303.177C107.392 303.081 107.865 302.457 107.77 301.783C107.678 301.113 107.053 300.64 106.38 300.728H106.376Z" fill="#EEE4F4"/>
<path d="M134.467 259.536C134.587 259.536 134.707 259.518 134.827 259.483C135.48 259.285 135.847 258.594 135.649 257.941C135.113 256.177 134.436 254.442 133.631 252.784C133.335 252.173 132.594 251.916 131.98 252.212C131.366 252.509 131.113 253.249 131.409 253.863C132.157 255.405 132.788 257.017 133.286 258.661C133.444 259.187 133.921 259.536 134.467 259.536Z" fill="#EEE4F4"/>
<path d="M125.511 291.535C125.183 291.528 124.869 291.652 124.632 291.881C123.398 293.07 122.057 294.17 120.653 295.151C120.381 295.338 120.201 295.624 120.145 295.948C120.088 296.273 120.159 296.601 120.346 296.873C120.575 297.204 120.956 297.402 121.358 297.402C121.612 297.402 121.856 297.324 122.064 297.18C123.577 296.125 125.017 294.943 126.347 293.662C126.837 293.19 126.851 292.407 126.378 291.916C126.149 291.68 125.842 291.546 125.511 291.539V291.535Z" fill="#EEE4F4"/>
<path d="M135.448 262.297C134.774 262.393 134.302 263.017 134.397 263.691C134.605 265.194 134.711 266.721 134.711 268.235C134.711 268.432 134.711 268.633 134.704 268.831C134.69 269.512 135.237 270.076 135.939 270.087C136.605 270.087 137.159 269.543 137.173 268.873C137.177 268.658 137.18 268.443 137.18 268.231C137.18 266.605 137.067 264.961 136.842 263.345C136.75 262.675 136.122 262.202 135.452 262.29L135.448 262.297Z" fill="#EEE4F4"/>
<path d="M113.424 234.844C111.685 234.241 109.879 233.771 108.062 233.447C107.392 233.33 106.75 233.782 106.633 234.449C106.577 234.773 106.647 235.101 106.838 235.373C107.028 235.645 107.31 235.825 107.635 235.881C109.325 236.181 111.001 236.618 112.62 237.179C112.75 237.225 112.888 237.246 113.025 237.246C113.551 237.246 114.02 236.911 114.193 236.417C114.415 235.775 114.073 235.07 113.431 234.847L113.424 234.844Z" fill="#EEE4F4"/>
<path d="M135.635 272.962C134.965 272.846 134.323 273.294 134.206 273.964C133.906 275.654 133.469 277.329 132.908 278.949C132.686 279.591 133.028 280.296 133.67 280.518C133.801 280.564 133.938 280.586 134.076 280.586C134.601 280.586 135.071 280.25 135.244 279.756C135.847 278.014 136.316 276.211 136.641 274.394C136.697 274.07 136.626 273.742 136.436 273.47C136.245 273.198 135.963 273.018 135.639 272.962H135.635Z" fill="#EEE4F4"/>
<path d="M80.969 251.178C80.7397 251.418 80.6197 251.728 80.6268 252.06C80.6338 252.391 80.7679 252.698 81.0078 252.924C82.3801 254.24 83.8088 255.556 85.2552 256.84C85.481 257.041 85.7703 257.15 86.0736 257.15C86.4264 257.15 86.7651 256.999 86.9979 256.734C87.4495 256.226 87.4036 255.443 86.8921 254.991C85.4704 253.732 84.0663 252.437 82.7152 251.142C82.2248 250.67 81.4417 250.687 80.969 251.178Z" fill="#EEE4F4"/>
<path d="M124.219 282.216C124.699 282.216 125.14 281.934 125.341 281.5C125.479 281.2 125.493 280.865 125.38 280.554C125.267 280.244 125.038 279.997 124.741 279.86C123.055 279.076 121.337 278.24 119.64 277.369C119.347 277.217 119.012 277.189 118.698 277.291C118.384 277.394 118.127 277.609 117.979 277.905C117.668 278.512 117.908 279.256 118.515 279.567C120.243 280.452 121.986 281.306 123.701 282.1C123.866 282.177 124.039 282.216 124.219 282.216Z" fill="#EEE4F4"/>
<path d="M104.256 271.043C104.672 271.043 105.06 270.835 105.289 270.485C105.469 270.21 105.533 269.879 105.466 269.557C105.399 269.233 105.212 268.958 104.936 268.774C104.15 268.256 103.353 267.723 102.573 267.19C101.811 266.668 101.028 266.125 100.245 265.568C99.6907 265.176 98.9181 265.307 98.523 265.86C98.3325 266.128 98.2584 266.457 98.3148 266.781C98.3713 267.106 98.5477 267.391 98.8193 267.582C99.5954 268.132 100.393 268.686 101.183 269.226C101.973 269.766 102.781 270.305 103.582 270.835C103.783 270.969 104.019 271.039 104.259 271.039L104.256 271.043Z" fill="#EEE4F4"/>
<path d="M112.814 276.489C113.019 276.609 113.223 276.725 113.428 276.842C113.611 276.944 113.82 277 114.031 277C114.479 277 114.892 276.757 115.107 276.369C115.439 275.776 115.227 275.021 114.635 274.69C113.008 273.776 111.357 272.813 109.731 271.822C109.449 271.649 109.117 271.599 108.796 271.677C108.475 271.755 108.203 271.952 108.034 272.234C107.861 272.517 107.812 272.848 107.889 273.169C107.967 273.49 108.165 273.762 108.447 273.931C109.131 274.348 109.837 274.771 110.553 275.191C109.734 276.365 108.902 277.508 108.073 278.588C107.872 278.849 107.787 279.174 107.829 279.502C107.872 279.83 108.041 280.119 108.302 280.32C108.521 280.486 108.778 280.574 109.054 280.574C109.442 280.574 109.798 280.398 110.034 280.091C110.93 278.923 111.826 277.692 112.705 276.429L112.818 276.492L112.814 276.489Z" fill="#EEE4F4"/>
<path d="M104.884 282.508C103.755 283.814 102.605 285.059 101.458 286.216C101.226 286.449 101.099 286.763 101.102 287.091C101.102 287.423 101.233 287.729 101.469 287.962C101.702 288.192 102.009 288.319 102.337 288.319C102.665 288.319 102.982 288.188 103.215 287.952C104.401 286.756 105.589 285.468 106.754 284.124C107.198 283.609 107.142 282.829 106.627 282.381C106.112 281.937 105.332 281.993 104.884 282.508Z" fill="#EEE4F4"/>
<path d="M121.923 255.863C121.281 255.637 120.575 255.979 120.35 256.621C119.824 258.127 119.196 259.697 118.487 261.292C118.353 261.592 118.342 261.93 118.462 262.237C118.582 262.544 118.812 262.788 119.115 262.922C119.274 262.992 119.443 263.027 119.616 263.027C120.103 263.027 120.547 262.738 120.745 262.294C121.482 260.643 122.131 259.006 122.681 257.432C122.791 257.122 122.77 256.787 122.629 256.49C122.484 256.194 122.233 255.968 121.923 255.863Z" fill="#EEE4F4"/>
<path d="M114.193 239.095C113.89 238.971 113.555 238.971 113.248 239.095C111.773 239.709 110.193 240.58 108.549 241.684C108.274 241.868 108.09 242.146 108.027 242.471C107.963 242.795 108.027 243.124 108.214 243.395C108.443 243.737 108.828 243.942 109.24 243.942C109.487 243.942 109.724 243.868 109.928 243.73C111.435 242.714 112.874 241.921 114.197 241.37C114.5 241.243 114.737 241.007 114.864 240.7C114.991 240.397 114.987 240.058 114.864 239.755C114.737 239.451 114.497 239.211 114.193 239.088V239.095Z" fill="#EEE4F4"/>
<path d="M124.152 252.377C124.586 250.448 124.826 248.659 124.865 247.061C124.883 246.38 124.339 245.812 123.662 245.798C123.331 245.787 123.02 245.907 122.784 246.133C122.544 246.363 122.406 246.669 122.399 247.001C122.364 248.437 122.145 250.063 121.747 251.838C121.598 252.501 122.018 253.164 122.681 253.312C122.77 253.333 122.861 253.344 122.953 253.344C123.535 253.344 124.029 252.949 124.156 252.381L124.152 252.377Z" fill="#EEE4F4"/>
<path d="M84.126 275.867C84.6128 275.867 85.0573 275.578 85.2548 275.134C85.9145 273.648 86.6589 272.121 87.4632 270.597C87.6185 270.304 87.6502 269.973 87.5514 269.655C87.4526 269.341 87.241 269.08 86.9482 268.928C86.3449 268.611 85.597 268.844 85.2795 269.443C84.4505 271.017 83.6815 272.594 82.9971 274.128C82.7219 274.749 83.0006 275.483 83.625 275.758C83.7838 275.829 83.9531 275.864 84.126 275.864V275.867Z" fill="#EEE4F4"/>
<path d="M90.5081 297.32C91.136 297.059 91.4359 296.332 91.1748 295.704C91.0478 295.401 90.8114 295.161 90.5045 295.037C90.1976 294.91 89.8625 294.91 89.5591 295.037C88.2997 295.563 87.1567 295.863 86.1548 295.933C86.0419 293.873 84.3345 292.233 82.246 292.233C82.0238 292.233 81.805 292.257 81.5934 292.293C81.4346 291.566 81.35 290.737 81.35 289.813C81.35 289.686 81.35 289.555 81.357 289.425C81.3711 288.744 80.8314 288.176 80.1223 288.162C79.445 288.162 78.9017 288.691 78.8876 289.368C78.884 289.52 78.8805 289.668 78.8805 289.813C78.8805 291.195 79.0463 292.43 79.3568 293.496L79.3497 293.503V293.517C78.7182 294.212 78.3267 295.136 78.3267 296.152C78.3267 298.311 80.0835 300.071 82.246 300.071C83.2267 300.071 84.1228 299.708 84.8107 299.108L84.8213 299.115C84.9589 299.189 85.1 299.271 85.2376 299.345C85.4175 299.443 85.6186 299.493 85.8232 299.493C86.2782 299.493 86.6945 299.242 86.9097 298.84C86.9979 298.678 87.0438 298.498 87.0544 298.318C88.1374 298.159 89.2945 297.824 90.5045 297.32H90.5081Z" fill="#EEE4F4"/>
<path d="M98.6816 289.352C98.3535 289.328 98.0324 289.43 97.782 289.645C96.4379 290.795 95.1044 291.818 93.8238 292.679C93.5486 292.863 93.3652 293.145 93.3017 293.466C93.2382 293.787 93.3017 294.119 93.4887 294.39C93.718 294.732 94.1025 294.937 94.5153 294.937C94.7622 294.937 94.9986 294.863 95.2032 294.725C96.5614 293.808 97.9689 292.732 99.3871 291.519C99.6376 291.303 99.7893 291.003 99.814 290.675C99.8387 290.347 99.7364 290.026 99.5212 289.776C99.306 289.525 99.0061 289.374 98.678 289.349L98.6816 289.352Z" fill="#EEE4F4"/>
<path d="M116.278 265.829C115.509 267.29 114.67 268.768 113.784 270.228C113.615 270.51 113.562 270.842 113.639 271.163C113.717 271.484 113.918 271.756 114.197 271.925C114.391 272.041 114.61 272.105 114.835 272.105C115.273 272.105 115.668 271.883 115.894 271.509C116.804 270.009 117.665 268.485 118.458 266.983C118.776 266.379 118.547 265.631 117.943 265.314C117.34 264.996 116.592 265.226 116.275 265.829H116.278Z" fill="#EEE4F4"/>
<path d="M104.369 244.895C103.106 245.974 101.822 247.174 100.545 248.461C100.065 248.945 100.068 249.728 100.552 250.208C100.785 250.437 101.091 250.564 101.42 250.564C101.748 250.564 102.062 250.433 102.298 250.197C103.526 248.959 104.76 247.805 105.974 246.768C106.224 246.553 106.376 246.253 106.401 245.925C106.425 245.597 106.323 245.276 106.108 245.025C105.667 244.507 104.884 244.447 104.369 244.891V244.895Z" fill="#EEE4F4"/>
<path d="M93.475 257.239C93.5173 257.567 93.6867 257.856 93.9477 258.057C94.1664 258.223 94.424 258.311 94.6991 258.311C95.0872 258.311 95.4435 258.135 95.6798 257.828C96.7205 256.47 97.7965 255.15 98.8725 253.905C99.317 253.39 99.2605 252.61 98.7455 252.162C98.2304 251.718 97.4508 251.774 97.0028 252.289C95.8915 253.574 94.7873 254.932 93.7184 256.325C93.5173 256.586 93.4327 256.911 93.475 257.239Z" fill="#EEE4F4"/>
<path d="M82.6342 278.233C81.9921 278.01 81.2866 278.349 81.0608 278.991C80.4469 280.751 79.9531 282.455 79.5932 284.053C79.4451 284.717 79.8649 285.38 80.5281 285.528C80.6163 285.549 80.708 285.56 80.7997 285.56C81.3712 285.56 81.8792 285.154 82.0027 284.597C82.3414 283.094 82.807 281.482 83.3926 279.809C83.502 279.499 83.4808 279.164 83.3397 278.868C83.1951 278.571 82.9446 278.345 82.6342 278.24V278.233Z" fill="#EEE4F4"/>
<path d="M89.471 258.847C89.2628 259.101 89.164 259.422 89.1958 259.75C89.2275 260.078 89.3863 260.374 89.6403 260.582C89.852 260.759 90.0672 260.932 90.2824 261.104C89.4251 262.378 88.6067 263.659 87.8447 264.914C87.6753 265.197 87.6224 265.528 87.7 265.849C87.7776 266.17 87.9787 266.438 88.2574 266.611C88.4514 266.728 88.6702 266.791 88.8959 266.791C89.3334 266.791 89.7285 266.569 89.9543 266.195C90.6598 265.031 91.4183 263.842 92.2156 262.653C92.8682 263.165 93.5209 263.673 94.1629 264.163C94.3816 264.329 94.6392 264.417 94.9108 264.417C95.2988 264.417 95.6587 264.241 95.8915 263.93C96.0926 263.669 96.1773 263.345 96.1349 263.016C96.0926 262.688 95.9233 262.399 95.6587 262.198C94.1488 261.048 92.653 259.859 91.2031 258.67C90.6775 258.24 89.8978 258.314 89.4639 258.84L89.471 258.847Z" fill="#EEE4F4"/>
<path d="M343.082 381.567C328.065 378.795 308.101 377.263 286.867 377.263C265.634 377.263 245.673 378.791 230.656 381.567C214.597 384.538 206.452 388.429 206.452 393.128C206.452 398.987 219.614 402.649 230.656 404.685C245.684 407.461 265.648 408.992 286.867 408.992C308.087 408.992 328.054 407.465 343.082 404.685C354.124 402.646 367.286 398.984 367.286 393.128C367.286 388.429 359.144 384.538 343.082 381.567ZM342.634 402.258C327.751 405.009 307.946 406.523 286.867 406.523C265.789 406.523 245.984 405.009 231.104 402.258C209.99 398.356 208.921 393.967 208.921 393.128C208.921 392.288 209.99 387.896 231.104 383.994C245.97 381.246 265.775 379.733 286.867 379.733C307.96 379.733 327.765 381.246 342.634 383.994C363.748 387.896 364.817 392.285 364.817 393.128C364.817 393.971 363.748 398.356 342.634 402.258Z" fill="#EEE4F4"/>
<path d="M105.921 57.1471C103.247 57.2212 100.534 55.6548 99.7436 53.5805C99.5002 52.9455 98.784 52.6245 98.149 52.8679C97.514 53.1113 97.193 53.8239 97.4364 54.4624C98.5759 57.4505 102.072 59.62 105.748 59.62C105.829 59.62 105.907 59.62 105.988 59.62C106.316 59.613 106.623 59.4754 106.852 59.2355C107.078 58.9956 107.198 58.6816 107.191 58.3536C107.173 57.6762 106.612 57.1365 105.924 57.1506L105.921 57.1471Z" fill="#EEE4F4"/>
<path d="M179.556 39.4052C179.196 39.1124 178.759 38.9325 178.272 38.8725C178.501 37.6907 178.261 36.6007 177.609 35.8951C177.168 35.4153 176.575 35.1296 175.912 35.0802C175.778 34.0219 175.27 33.1399 174.494 32.6319C173.686 32.1063 172.331 31.7782 170.349 33.0164C170.19 32.3497 169.887 31.8205 169.442 31.436C169.012 31.0656 168.066 30.5294 166.581 31.0691C163.843 32.0604 159.97 36.7559 157.306 45.0461C156.809 44.0407 156.206 43.2611 155.564 42.8025C154.802 42.2557 154.121 42.2627 153.687 42.365C151.479 42.8942 151.549 45.9704 151.634 49.5299C151.662 50.6059 151.69 51.823 151.634 52.8319C151.397 56.9524 151.387 61.2951 153.959 65.1368C151.359 73.8046 148.801 79.5619 146.536 84.6595C144.776 88.6177 143.248 92.0537 141.964 96.1847C132.76 90.8613 119.834 83.5024 112.017 79.9393C109.978 79.008 98.5232 79.0292 94.4733 79.0715L94.6356 74.1891C99.5921 74.0092 103.25 73.2048 106.069 69.9557C109.424 66.0893 111.17 58.9738 111.893 46.1997C113.954 46.2773 115.365 46.3091 116.42 46.3091C121.284 46.3091 123.994 42.3368 124.156 38.4104C124.325 34.297 121.782 29.6474 115.795 29.1571C115.097 29.1006 114.395 29.0406 113.686 28.9807L113.52 28.9666L113.576 27.6719C113.615 26.7864 118.953 23.6283 118.995 22.7957C120.268 22.323 113.77 19.2957 118.995 16.7957C120.526 8.46312 113.77 17.2957 117.422 10.7957C116.779 9.3705 109.753 13.2957 113.389 6.79572C106.753 4.79572 104.77 11.7957 105.653 3.79572C96.3664 1.40698 98.6621 8.74279 94.4733 0.295715C88.4733 4.79572 87.1394 4.16725 83.6784 2.29569C79.5297 3.36813 83.6784 8.18445 78.2279 3.79572C70.9873 5.84864 76.2695 11.7957 68.8864 6.79572C68.4948 13.368 61.718 8.56193 60.1446 14.7567C62.2695 21.2957 53.2695 17.2957 58.6982 25.841C54.105 25.841 60.1411 26.543 61.2417 26.4442C60.3457 28.328 60.1375 29.9896 60.1446 31.1503H60.1411V31.1749C59.7212 31.4113 59.3508 31.7606 59.0474 32.2298C57.8797 34.0395 57.7104 37.539 58.4089 39.1371L54.9058 39.4687C53.3924 41.7477 57.5305 43.8361 51.7026 47.2581C56.7368 51.0187 55.1422 55.0862 56.7368 56.1657C57.5376 56.709 58.5253 56.8536 59.6789 56.5996C59.5625 57.8237 54.9058 60.4696 58.9804 60.4696C60.5362 64.8687 58.9804 68.333 63.242 63.6693C63.242 68.333 65.976 70.2133 68.8864 67.1688L67.5141 80.5038C63.1608 80.973 59.6084 81.5445 56.9555 82.2006C49.6142 84.0139 42.3646 98.2555 36.5403 109.7L36.4944 109.791C35.4396 111.862 34.4448 113.817 33.5452 115.499C29.58 122.897 27.9642 127.973 27.9642 133.022C27.9642 134.948 28.9732 139.157 31.044 145.863C29.8234 146.014 28.5887 146.177 27.2763 146.367C15.1902 148.138 0.648711 151.849 0.0207675 159.459C-0.607176 167.065 13.1264 173.115 24.7575 176.851C30.2996 178.632 36.5826 180.28 43.4335 181.754L43.6205 181.797H43.6276C44.3014 181.941 44.9787 182.082 45.6631 182.227L46.2769 182.354C49.7553 183.053 53.3078 183.705 56.8602 184.287L57.1248 184.333C57.7245 184.432 58.3313 184.531 58.9346 184.622H58.9451C62.6705 185.215 66.5228 185.751 70.3998 186.228H70.4033L70.6538 186.259H70.6609C71.2712 186.333 71.8815 186.408 72.4953 186.478L72.9716 186.531C76.9227 186.986 80.969 187.388 85.0119 187.723C94.9178 188.542 104.654 188.958 113.954 188.958C121.348 188.958 128.393 188.69 134.902 188.164L135.935 188.076H135.995C136.055 188.066 136.115 188.062 136.175 188.055C136.45 188.03 136.725 188.006 136.997 187.981L137.368 187.946C140.444 187.653 143.428 187.3 146.236 186.891C158.322 185.12 172.864 181.409 173.492 173.799C174.12 166.19 160.386 160.143 148.755 156.411C143.523 154.732 137.65 153.172 131.303 151.775C128.851 139.284 126.227 128.023 123.496 118.297C130.39 120.77 140.356 122.544 147.527 122.544C150.205 122.544 153.645 122.28 154.841 121.024C157.321 118.413 165.66 99.9206 169.216 66.4703C170.335 65.4966 173.478 62.5404 174.003 59.5876C174.473 56.9735 174.219 53.4634 174.07 51.9324C175.157 50.5636 178.339 46.4961 179.588 44.2665C181.267 41.2679 180.138 39.878 179.574 39.4193L179.556 39.4052ZM137.004 185.49C136.157 179.539 134.397 167.929 131.804 154.411C137.703 155.741 143.146 157.201 147.983 158.757C162.778 163.509 171.389 169.054 171.015 173.595C170.631 178.198 161.462 182.157 145.859 184.446C143.037 184.859 140.059 185.212 137.004 185.494V185.49ZM118.36 103.283C118.064 103.141 117.728 103.127 117.422 103.237C116.779 103.463 116.441 104.172 116.667 104.814C120.91 116.815 124.967 132.521 128.717 151.497L128.763 151.722C128.887 152.354 129.01 152.982 129.134 153.606L129.165 153.772C131.854 167.671 133.667 179.599 134.538 185.702C119.99 186.873 102.944 186.718 85.1953 185.25C80.9373 184.898 76.6581 184.471 72.4636 183.977C70.2975 172.716 67.6446 160.062 64.579 146.36L64.1839 144.596C60.2469 127.063 56.638 112.211 54.9058 105.075L54.8388 104.8C54.5107 103.459 54.2638 102.432 54.105 101.769C53.9428 101.11 53.276 100.7 52.6163 100.859C51.9566 101.018 51.5439 101.685 51.7026 102.351L52.6622 106.299C53.597 110.155 55.0117 115.965 56.6909 123.091C56.3134 123.79 55.7701 124.661 55.0716 125.687C42.608 127.504 37.7679 119.433 36.2157 115.686C37.0059 114.18 37.8526 112.522 38.7204 110.814C44.0191 100.4 51.2793 86.1412 57.5305 84.596C62.2859 83.4212 69.9835 82.5393 80.4081 81.9784C94.752 81.2058 109.611 81.5621 110.983 82.1901C119.933 86.2682 135.487 95.2922 142.959 99.6278L143.21 99.7725C143.241 99.7936 143.277 99.8113 143.308 99.8289C143.767 106.733 141.368 114.261 137.159 119.122C133.229 118.516 127.599 117.369 122.625 115.323C121.433 111.252 120.212 107.442 118.995 103.995C118.886 103.681 118.66 103.431 118.36 103.29V103.283ZM31.7742 148.251C34.861 157.974 39.2743 170.31 42.4211 178.996C36.2721 177.634 30.5748 176.12 25.4948 174.487C10.4771 169.661 2.08098 164.253 2.46198 159.646C2.86767 154.749 14.093 150.389 31.7742 148.248V148.251ZM45.2715 179.613C40.449 166.331 36.759 155.695 34.2895 147.969L34.2296 147.782C34.2049 147.708 34.1802 147.63 34.1555 147.556C33.965 146.967 33.7851 146.399 33.6122 145.842C31.4885 139.051 30.4125 134.733 30.4125 133.011C30.4125 128.817 31.7213 124.425 34.7764 118.424C36.886 122.428 41.6873 128.425 51.498 128.425C52.0201 128.425 52.5704 128.404 53.149 128.365C52.2071 129.628 51.2934 130.799 50.6055 131.667C50.2809 131.445 49.8611 131.385 49.4731 131.529C48.8381 131.769 48.517 132.482 48.7534 133.12C49.6988 135.632 50.669 139.566 51.6391 144.801L51.9531 146.547C53.9745 158.062 55.5797 172.702 56.5639 181.726C52.7292 181.088 48.9333 180.379 45.275 179.613H45.2715ZM59.0933 182.139C58.102 173.055 56.4616 158.037 54.4225 146.388C54.3202 145.796 54.2179 145.21 54.1121 144.639C53.3183 140.31 52.514 136.807 51.7273 134.221C52.9515 132.708 55.6079 129.363 57.4988 126.506C58.8993 132.464 60.3069 138.592 61.6898 144.737L61.785 145.168C61.8838 145.609 61.9826 146.053 62.0849 146.494C65.1364 160.154 67.761 172.653 69.8918 183.666C66.2194 183.211 62.5929 182.7 59.0933 182.146V182.139ZM171.545 51.6784V51.7136C171.633 52.4862 172.031 56.4832 171.555 59.1396C171.167 61.3162 168.317 64.015 167.251 64.8687C166.99 65.0768 166.828 65.3732 166.793 65.7048C163.307 99.1198 155.059 117.175 153.034 119.306C152.29 120.089 147.143 120.371 140.027 119.507C143.753 114.568 145.898 107.844 145.841 101.279C146.617 101.727 147.122 102.009 147.355 102.125C147.647 102.27 147.983 102.295 148.297 102.189C148.611 102.083 148.865 101.864 149.009 101.572C149.157 101.275 149.182 100.94 149.076 100.626C148.97 100.316 148.752 100.062 148.459 99.9171C148.113 99.7443 146.649 98.8941 144.624 97.7228L144.201 97.4759C144.201 97.4759 144.169 97.4582 144.155 97.4512C145.432 93.2108 146.991 89.7042 148.79 85.6543C150.946 80.8001 153.387 75.3109 155.881 67.2782C156.305 67.4475 156.837 67.3558 157.197 67.0206C157.684 66.5479 157.698 65.7683 157.229 65.2744C153.881 61.7889 153.835 57.4639 154.093 52.966C154.153 51.8583 154.124 50.5883 154.093 49.4488C154.068 48.4716 154.004 45.6741 154.248 44.8909C154.717 45.3319 155.765 46.9688 156.019 49.5229C156.019 49.5617 156.026 49.597 156.036 49.6393C155.715 51.0398 155.447 52.398 155.218 53.7844C155.162 54.109 155.239 54.4371 155.43 54.7052C155.624 54.9733 155.909 55.1497 156.234 55.2026C156.559 55.2555 156.887 55.1779 157.151 54.9874C157.419 54.7969 157.599 54.5112 157.649 54.1831C159.748 41.5113 164.62 34.3887 167.403 33.3798C167.671 33.2846 167.802 33.2951 167.816 33.2951C167.886 33.3586 168.105 33.8349 167.911 35.052C165.131 37.9835 162.746 42.7425 161.438 46.2421C161.201 46.8771 161.526 47.5897 162.168 47.8331C162.863 48.073 163.526 47.7131 163.748 47.1064C165.029 43.6915 167.329 39.1124 169.936 36.5054C171.633 34.8156 172.557 34.6322 172.871 34.6322C172.98 34.6322 173.069 34.6533 173.129 34.6921C173.358 34.8438 173.531 35.3695 173.446 35.8951C170.888 37.7366 167.583 42.2733 165.177 47.2581C164.888 47.8719 165.145 48.6092 165.755 48.9055C165.921 48.9867 166.108 49.029 166.292 49.029C166.771 49.029 167.198 48.7609 167.407 48.3305C170.024 42.9048 173.291 38.8796 175.157 37.7119C175.478 37.5249 175.729 37.5038 175.778 37.5567C175.933 37.726 176.042 38.6397 175.051 40.079C172.024 42.9824 169.812 45.66 168.281 48.2705C167.943 48.8632 168.14 49.6181 168.722 49.9568C168.913 50.0732 169.125 50.1297 169.347 50.1297C169.784 50.1297 170.193 49.8933 170.412 49.5158C171.837 47.0781 173.936 44.5523 176.819 41.8006C177.358 41.3385 177.835 41.2926 177.958 41.3067C177.993 41.4584 177.972 42.0123 177.401 43.0388C176.06 45.4307 171.968 50.5459 171.792 50.7611C171.587 51.0151 171.488 51.3503 171.527 51.6678L171.545 51.6784ZM61.0265 33.6867L61.0794 33.5985C61.1182 33.5315 61.1535 33.4821 61.1853 33.4433C61.2558 33.3551 61.3017 33.3234 61.3229 33.3163C61.3299 33.3163 61.3334 33.3128 61.337 33.3128C61.4604 33.3198 61.591 33.3269 61.7215 33.3339C61.7427 33.3339 61.7638 33.3339 61.785 33.3339C61.9085 33.341 62.0355 33.3445 62.166 33.3516H62.1731C62.2224 33.3516 62.2683 33.3551 62.3177 33.3586C62.5082 33.3657 62.7057 33.3763 62.9104 33.3833L63.242 33.3939C64.0745 33.4221 65.0129 33.4468 66.0183 33.468C66.1524 33.468 66.2794 33.4751 66.417 33.4786H66.5863C68.8335 33.528 71.3735 33.5597 73.8359 33.5774H74.0581C74.8413 33.5879 75.6174 33.5915 76.3688 33.595H76.5452C76.5875 33.595 76.6263 33.595 76.6651 33.595C77.0461 33.595 77.4201 33.595 77.787 33.5985C77.9351 33.5985 78.0833 33.5985 78.2279 33.5985C78.0022 34.3288 77.8858 35.1084 77.8858 35.9198C77.8858 36.9464 77.9351 37.7613 78.048 38.4951C75.2822 38.3892 72.1567 38.2728 69.2639 38.1635L67.1225 38.0823L64.7695 37.9941C63.2878 37.9377 62.046 37.8918 61.1959 37.8636L60.5362 37.8389C60.5115 37.7225 60.4833 37.5567 60.4656 37.3274V37.3062C60.3704 36.2197 60.5044 34.6286 61.023 33.6867H61.0265ZM116.413 43.8361C115.181 43.8361 113.502 43.7832 111.968 43.7268L111.012 43.6915C110.648 43.6774 110.274 43.6633 109.893 43.6491H109.823C109.276 43.6245 108.718 43.5998 108.143 43.5751C103.977 43.4022 98.7913 43.1905 93.5526 43.1235C92.0251 42.9154 90.5646 40.5553 90.3635 37.973C90.2718 36.8123 90.2929 32.9247 94.3922 31.69C98.2833 30.5188 101.709 30.487 105.974 30.8186H106.006C107.752 30.9598 109.516 31.1079 111.251 31.2526C111.311 31.2596 111.368 31.2667 111.424 31.2702L113.389 31.436C114.127 31.496 114.857 31.5559 115.58 31.6159C119.965 31.9758 121.799 35.2354 121.672 38.3046C121.567 40.968 119.873 43.8361 116.406 43.8361H116.413ZM89.9966 71.7655C89.3157 71.7655 88.7619 72.3194 88.7619 73.0002C88.7619 73.6811 89.3157 74.2349 89.9966 74.2349C90.7374 74.2349 91.4606 74.2349 92.1591 74.2314L92.0004 79.1033C87.9928 79.1703 83.95 79.3079 80.2811 79.5089C76.5664 79.7065 73.1127 79.957 70.0047 80.2462L71.7122 63.6693C73.7053 60.8611 75.7444 57.2981 77.7658 53.0789C77.9598 52.6767 77.9175 52.204 77.6635 51.8371C77.4095 51.4773 76.9791 51.2762 76.5346 51.315C76.3794 51.3291 72.7423 51.6043 70.8831 48.1788C69.6872 45.9775 70.9008 43.5539 72.2343 42.6508C73.1409 42.0334 73.9099 42.1287 74.5802 42.9365C75.4128 43.9384 75.8608 44.8874 76.2594 45.7411C76.9544 47.2228 77.6776 48.7574 80.0624 49.096C81.0325 49.2371 81.9603 48.909 82.7505 48.1435C83.4843 47.4344 84.1017 46.2914 84.4792 44.9685H84.4897C86.116 45.3672 88.1022 45.5753 90.4129 45.5753C95.8245 45.5753 101.441 45.7799 106.203 45.9704C106.062 46.0974 105.946 46.2526 105.875 46.4361C105.755 46.743 105.762 47.0781 105.893 47.3815C106.679 49.1807 106.574 49.7451 106.492 49.9074C106.295 50.2955 104.986 50.5953 104.281 50.7541C103.617 50.9058 103.201 51.569 103.349 52.2322C103.476 52.7966 103.974 53.1918 104.552 53.1918C104.644 53.1918 104.736 53.1812 104.827 53.16C106.612 52.7543 108.031 52.3381 108.697 51.0187C109.255 49.918 109.092 48.5351 108.154 46.3902C108.094 46.2562 108.013 46.1397 107.914 46.0374L108.45 46.0586C108.778 46.0727 109.092 46.0833 109.41 46.0974C108.726 58.0989 107.113 64.9675 104.189 68.333C101.208 71.7655 96.7452 71.7655 89.986 71.7655H89.9966ZM81.0043 33.4257C81.1807 33.1117 81.3959 32.8154 81.6463 32.5402C81.8968 32.2615 82.1826 32.004 82.5001 31.7641H82.5071C82.6835 31.6265 82.874 31.503 83.0681 31.3831C83.1492 31.3337 83.2338 31.2878 83.3185 31.242C83.4349 31.1749 83.5549 31.1114 83.6784 31.0515C83.7912 30.995 83.9076 30.9456 84.0241 30.8927C84.1228 30.8469 84.2287 30.8045 84.331 30.7657C84.4686 30.7128 84.6062 30.6599 84.7473 30.6105C84.8355 30.5788 84.9272 30.5505 85.0189 30.5223C85.1777 30.4729 85.3329 30.4235 85.4987 30.3777C85.5057 30.3777 85.5093 30.3777 85.5163 30.3741C85.5692 30.36 85.6292 30.3494 85.6821 30.3353C85.8091 30.3036 85.9361 30.2754 86.0667 30.2471C86.1937 30.2189 86.3206 30.1942 86.4512 30.1695C86.5923 30.1448 86.7369 30.1201 86.8816 30.0954C86.9345 30.0884 86.9803 30.0778 87.0333 30.0708C87.2097 30.0461 87.3931 30.0284 87.5765 30.0072C87.7388 29.9896 87.9011 29.972 88.0704 29.9579H88.1304C88.4549 29.9296 88.7901 29.9191 89.1323 29.912C89.3404 29.9085 89.5556 29.9085 89.7673 29.9085H89.7744C90.4905 29.9085 91.2701 29.9191 92.1344 29.9473C88.7125 31.7076 87.6753 35.2178 87.9081 38.167C88.0528 39.9908 88.6596 41.7477 89.598 43.0918C87.5695 43.0494 85.9361 42.8413 84.6238 42.4603L84.5991 42.4532C84.5991 42.4532 84.5744 42.4462 84.5603 42.4426C84.3557 42.3827 84.1546 42.3156 83.9641 42.2451C83.9218 42.231 83.8794 42.2133 83.8406 42.1957C83.6642 42.1287 83.4914 42.0546 83.3291 41.977C83.2938 41.9593 83.2586 41.9452 83.2233 41.9276C83.1774 41.9064 83.1351 41.8853 83.0928 41.8641C82.9693 41.8006 82.8493 41.7336 82.7329 41.663L82.7188 41.6524C82.5989 41.5783 82.486 41.5043 82.3801 41.4231C82.3625 41.409 82.3484 41.3984 82.3307 41.3843C82.2249 41.3032 82.1226 41.222 82.0238 41.1374L82.0168 41.1303C81.9145 41.0386 81.8157 40.9433 81.7204 40.841L81.7098 40.8305C81.6181 40.7317 81.5335 40.6294 81.4523 40.5235V40.5165C81.3606 40.4036 81.283 40.2836 81.2054 40.1637C81.1983 40.1496 81.1913 40.139 81.1807 40.1214C81.1101 40.005 81.0466 39.885 80.9867 39.7615C80.9831 39.751 80.9761 39.7404 80.9726 39.7298C80.9338 39.6451 80.8985 39.5569 80.8632 39.4687C80.8385 39.4052 80.8103 39.3453 80.7891 39.2782V39.2712C80.7432 39.1442 80.7009 39.0137 80.6656 38.8761C80.6656 38.8655 80.6586 38.8514 80.655 38.8408L80.648 38.8126C80.3975 37.8671 80.3622 36.8194 80.3622 35.9163C80.3622 35.0132 80.581 34.17 81.0114 33.4221L81.0043 33.4257ZM111.061 28.4092L111.047 28.7619C109.431 28.6279 107.808 28.4903 106.207 28.3633L105.977 28.3457C104.767 28.2469 103.526 28.1516 102.28 28.0599C103.504 27.9506 104.485 27.6084 105.057 26.984C105.469 26.5395 105.674 25.9891 105.653 25.3929C107.558 25.8233 109.413 25.915 111.177 25.6646C111.135 26.5677 111.096 27.5202 111.057 28.4127L111.061 28.4092ZM89.1005 27.4461C88.8536 27.4461 88.6102 27.4567 88.3703 27.4673L88.7195 24.1265C91.3936 25.8233 94.9743 27.1745 98.1528 27.7671C94.812 27.559 91.6264 27.4179 89.1005 27.4426V27.4461Z" fill="#EEE4F4"/>
<path d="M78.2523 48.1833C77.3986 48.1833 76.693 47.3543 76.5307 46.5853C76.4037 45.9891 76.5766 45.5798 77.0423 45.3717C77.3421 45.2376 77.575 44.9942 77.6914 44.6838C77.8078 44.3769 77.8007 44.0417 77.6632 43.7383C77.5291 43.4385 77.2857 43.2056 76.9752 43.0892C76.6683 42.9728 76.3297 42.9799 76.0298 43.1174C74.4705 43.8159 73.7367 45.3435 74.1142 47.1038C74.4811 48.8254 76.058 50.6563 78.2523 50.6563C78.9331 50.6563 79.487 50.1024 79.487 49.4216C79.487 48.7407 78.9331 48.1869 78.2523 48.1869V48.1833Z" fill="#EEE4F4"/>
<path d="M435.805 93.6334C435.787 93.3618 435.784 92.7973 435.78 92.0777C435.773 90.2644 435.759 87.5268 435.459 85.1174C435.254 83.4805 434.662 82.3798 433.699 81.8436C433.402 81.6813 433.088 81.579 432.753 81.5402C432.281 80.376 431.36 79.5364 430.361 79.3459C430.044 77.3104 429.472 76.0721 428.573 75.4654C428.142 75.1761 427.419 74.8939 426.442 75.1973C425.535 75.4795 424.967 76.3367 424.798 77.6773C424.544 77.7373 424.308 77.8396 424.089 77.9877C422.48 79.0743 422.551 82.0482 422.646 86.1616V86.3168C422.657 86.599 422.664 86.8848 422.667 87.1705C422.128 86.8213 421.655 86.726 421.38 86.7013C420.537 86.6273 419.785 87.0329 419.468 87.7314C419.21 88.2994 419.256 89.0579 419.372 90.5748C419.468 91.8095 419.591 93.3441 419.386 94.2472C418.995 95.9794 418.801 101.412 418.744 103.285L417.711 104.157C417.323 103.98 416.868 104.012 416.501 104.263C416.444 104.301 410.825 108.147 403.346 111.886C395.401 115.858 387.947 121.916 384.955 124.932C381.396 123.715 358.338 115.827 353.766 113.858C353.096 113.569 352.334 113.22 351.526 112.846C348.958 111.664 345.476 110.062 341.229 108.768C341.919 107.832 347.433 111.438 347.889 110.38C354.025 114.981 355.182 108.746 355.525 107.067C352.245 104.157 353.411 103.278 353.766 100.481C354.009 98.5708 351.901 95.3503 353.025 93.898C353.501 91.1844 347.889 91.7249 351.526 85.2832C351.266 82.7011 347.889 86.1616 350.383 81.8436C349.748 79.325 345.335 81.5649 345.522 76.4673C345.582 74.8304 341.197 76.0192 341.169 73.9167C341.648 73.8602 342.037 73.8179 342.312 73.7932C346.065 73.4334 348.129 68.9566 347.889 65.0126C347.685 61.5836 345.568 57.6148 340.29 57.569C340.255 57.2479 340.223 56.9375 340.188 56.6553C342.125 56.3872 342.967 58.0382 344.025 57.6536C344.833 59.6362 345.529 54.9937 345.504 54.4539C345.501 54.3848 341.169 47.9814 343.59 45.8815C342.77 43.5921 337.025 42.9814 339.962 38.9145C338.435 36.8498 334.025 38.4814 334.025 33.639C331.446 32.2317 327.025 34.9814 324.436 31.4814C322.356 30.7013 321.025 34.9814 317.525 30.2957C315.236 33.639 312.705 30.5741 310.283 31.1643C307.668 31.8015 307.525 34.9814 302.755 34.0389C301.792 38.4814 298.431 36.7561 296.747 38.4814C298.525 43.9814 291.724 42.7073 291.525 46.9814C291.406 49.5579 294.239 52.9053 289.025 54.6303C288.641 56.5548 294.239 59.7738 289.525 62.4902C288 72 293.573 65.9038 294.094 67.8383V67.8524C293.643 68.1946 293.332 68.7873 293.18 69.6234C292.916 71.0239 293.06 73.4263 294.299 75.6523V75.6594C292.5 75.2678 295.114 72.0258 291.525 72.0258C287.5 72.9113 288.166 81.5649 289.025 71.4684C287 70.2959 283.14 72.3166 280.857 71.4684C278.872 70.7311 280.857 78.6404 275.025 70.9357C272.334 71.7244 274.346 76.5484 265.025 72.6996C263.783 73.3205 266.955 77.0105 260.525 74.4564C259.026 74.9125 261.525 78.9814 253.525 75.991C250.594 75.9209 254.025 80.9814 245.525 80.3231C244.43 82.1173 247.735 88.5572 246.307 88.6522C241.114 82.3128 234.083 73.6803 227.469 65.5276C227.292 65.3089 227.042 65.1572 226.767 65.1008L224.368 61.7917C225.295 60.497 226.929 57.4349 225.698 53.1275C224.798 49.9807 224.054 48.2486 223.398 46.7211C222.967 45.7192 222.597 44.8549 222.258 43.7472C221.859 42.4419 220.699 41.7434 219.496 42.0856C217.848 42.5512 216.413 44.9607 217.785 50.2065C217.922 50.7286 217.922 51.1802 217.792 51.5294C216.631 48.933 213.82 42.5936 212.497 39.0764C210.913 34.8607 208.683 33.9082 207.258 34.3703C205.96 34.7902 204.792 36.5435 205.769 40.1065C206.171 41.5776 206.683 43.2251 207.297 45.0277C205.293 42.7911 203.025 40.2476 201.741 38.7765C199.37 36.0601 197.274 36.0566 196.198 36.8786C195.782 37.1961 194.925 38.1133 195.348 40.0536C194.371 40.0395 193.768 40.5334 193.531 40.7733C192.272 42.0609 192.632 44.548 194.357 46.4353C195.239 47.4019 197.662 50.5593 199.486 53.0534C198.354 52.3338 197.285 51.66 196.442 51.3354C194.646 50.6475 192.717 51.1237 192.053 52.4255C191.626 53.258 191.394 54.969 194.597 57.0574C198.305 59.4775 203.265 65.2172 204.563 67.1363C206.055 69.3341 209.703 71.3343 213.308 70.9569C213.576 71.4084 213.971 72.1034 214.398 72.8689C211.583 75.5183 209.498 78.3687 208.193 81.3391C208.013 81.7448 208.069 82.2175 208.334 82.5738C208.38 82.6373 213.241 89.1425 219.263 96.7378L217.785 94.8661C217.443 95.0954 220.942 98.4417 220.942 98.858C220.942 99.2708 221.147 99.6553 221.489 99.8846C220.843 98.4982 248.025 134.481 230.047 100.23C230.266 100.597 229.621 104.82 230.047 104.831C238.236 115.793 237.868 100.968 243.972 99.8952C242.44 101.282 239.943 102.904 236.009 103.984C257.507 85.5509 235.269 104.421 235.149 104.831C235.029 105.24 252.085 98.4276 235.42 106.005C235.942 106.58 240.423 114.046 251.525 119.104C251.829 119.242 252.182 119.253 252.496 119.129C252.869 118.981 261.163 115.675 265.781 113.421C264.853 115.061 262.811 117.228 258.38 119.457C257.904 119.697 257.635 120.212 257.713 120.738C257.791 121.263 258.193 121.683 258.719 121.775C258.994 121.824 266.894 132.659 275.025 132.659C282.106 132.659 281.359 141.96 281.359 141.96C281.094 152.54 280.622 170.969 280.301 179.51C279.821 192.302 277.471 212.72 274.363 224.75C274.282 225.068 274.332 225.41 274.497 225.692C274.663 225.974 274.942 226.179 275.263 226.256C275.284 226.26 277.39 226.786 280.233 227.565C277.175 236.095 273.647 259.231 272.522 266.96C271.679 266.639 270.709 266.656 269.685 267.016C269.022 267.249 268.341 267.623 267.653 268.135C264.112 265.965 256.643 264.215 248.021 262.197L247.968 262.183C238.994 260.081 228.823 257.699 221.38 254.419C219.45 253.565 217.03 253.269 214.98 253.621C214.472 252.14 213.301 251.099 211.788 250.817C210.253 250.531 208.828 251.103 208.32 252.207C207.893 253.135 204.873 259.04 201.37 265.873L201.247 266.113C192.667 282.881 189.051 290.007 188.857 290.744C188.677 291.425 188.776 292.106 189.139 292.716C189.947 294.074 191.891 294.678 192.491 294.833C194.953 295.866 197.744 296.413 200.562 296.413C204.393 296.41 208.182 295.397 211.23 293.566C215.516 290.991 218.102 286.983 218.515 282.277C218.547 281.911 218.409 281.54 218.138 281.276C219.863 279.469 222.696 276.566 224.223 275.084C234.217 279.162 245.771 285.124 255.07 289.926L255.126 289.954C256.88 290.861 258.559 291.725 260.146 292.54L260.4 292.67C260.527 292.734 260.651 292.797 260.778 292.864C266.824 295.955 271.403 298.177 274.078 298.974C274.963 299.239 275.788 299.504 276.593 299.758L276.801 299.825C279.482 300.685 281.8 301.426 283.945 301.426C285.317 301.426 286.562 301.123 287.748 300.502C290.99 298.805 293.971 294.593 298.031 285.964C304.356 272.527 311.497 256.634 316.749 240.209C318.919 250.016 324.532 262.441 330.458 275.561L330.871 276.478C332.501 280.09 334.184 283.823 335.789 287.509C335.288 287.64 334.815 287.887 334.399 288.239C333.457 289.037 332.924 290.286 332.963 291.559C331.365 291.802 330.176 292.06 330.169 292.064C327.71 292.596 322.941 294.558 315.991 297.895C310.83 300.375 306.074 302.844 304.741 303.543C297.749 307.208 294.556 308.88 282.484 310.821C280.66 311.114 279.433 311.53 278.547 312.158C277.538 311.763 275.99 311.586 274.744 312.101C273.587 312.578 272.92 313.565 272.917 314.814C272.913 321.626 274.804 356.893 274.956 357.666C275.076 358.259 275.415 358.735 275.937 359.049C276.378 359.31 276.956 359.444 277.655 359.444C278.508 359.444 279.359 359.243 279.821 359.112C280.106 359.126 280.396 359.134 280.713 359.134C285.751 359.134 289.942 357.345 292.838 353.965C296.733 349.422 297.855 342.422 295.837 335.243C295.749 334.926 295.53 334.651 295.234 334.492C295.103 334.422 294.965 334.379 294.821 334.358C295.368 329.945 296.595 326.505 297.721 326.283C302.61 325.32 334.801 316.716 352.002 311.674C359.795 309.388 363.598 306.88 365.136 303.01C366.667 299.154 365.976 294.039 364.928 286.289C364.671 284.405 364.42 282.539 364.159 280.439C361.961 262.645 357.675 232.518 357.008 227.862C357.89 227.562 358.677 227.248 359.351 226.93C359.82 226.708 360.102 226.211 360.053 225.692L360.039 225.561C359.58 220.901 357.241 197.163 356.236 187.673C355.273 178.575 351.329 149.337 350.383 142.363C352.775 142.729 357.329 143.442 363.577 144.504C365.782 144.878 368.163 145.326 370.481 145.763C378.404 147.259 385.89 148.67 389.926 147.972C394.579 147.164 399.497 143.149 408.422 135.868C413.202 131.966 419.147 127.112 426.735 121.404C427.176 121.072 427.345 120.48 427.141 119.965C426.629 118.666 425.998 117.269 425.264 115.809L429.666 111.022C430.958 110.598 434.803 109.138 436.165 106.379C437.315 104.044 436.754 99.433 435.981 94.7975C435.9 94.3178 435.812 93.778 435.801 93.6334H435.805ZM421.835 90.3843C421.817 90.1797 421.799 89.9398 421.782 89.7034C422.061 90.0739 422.392 90.6983 422.664 91.7249L422.674 91.7672C423.429 94.5612 423.546 95.7148 423.546 95.7218C423.602 96.3921 424.181 96.9072 424.879 96.8507C425.056 96.8366 425.225 96.7802 425.377 96.6955C425.228 96.9495 425.169 97.2388 425.221 97.5316C425.278 97.8561 425.458 98.1384 425.729 98.3289C428.386 100.195 427.278 104.665 426.975 105.127C426.587 105.684 426.724 106.457 427.282 106.845C427.49 106.99 427.733 107.067 427.987 107.067C428.389 107.067 428.77 106.87 429 106.538C429.829 105.353 431.24 99.1791 427.148 96.3039C426.749 96.0252 426.241 96.0182 425.842 96.2404C425.969 96.0217 426.029 95.7712 426.008 95.5172C426.005 95.4678 425.902 94.2719 425.105 91.2909C425.193 89.5553 425.151 87.7209 425.112 86.1016C425.077 84.6305 424.989 80.8417 425.408 80.1114C425.62 80.4007 426.308 82.0447 426.565 91.3192C426.583 91.993 427.126 92.5186 427.832 92.5186C428.227 92.508 428.573 92.3105 428.792 92.0142C428.859 92.6386 429.384 93.1184 430.019 93.1184C430.04 93.1184 430.062 93.1184 430.083 93.1184C430.411 93.1007 430.714 92.9596 430.936 92.7126C431.074 92.561 431.169 92.381 431.219 92.1905C431.226 92.3669 431.233 92.4692 431.233 92.4798C431.261 93.143 431.804 93.6616 432.467 93.6616H432.52C432.831 93.6475 433.113 93.517 433.321 93.3159C433.325 93.5135 433.332 93.6757 433.342 93.8098C433.36 94.0567 433.427 94.4589 433.55 95.2068C433.889 97.2211 434.912 103.349 433.956 105.293C433.046 107.141 429.737 108.447 428.65 108.76C428.432 108.824 428.234 108.944 428.079 109.113L424.047 113.498C422.593 110.856 420.896 108.178 419.327 106.034L420.759 104.831C421.03 104.605 421.189 104.27 421.2 103.917C421.253 101.888 421.461 96.2969 421.799 94.8011C422.085 93.5311 421.951 91.7884 421.838 90.3878L421.835 90.3843ZM427.218 78.4252C427.229 78.0936 427.264 77.8254 427.303 77.6491C427.451 77.8713 427.716 78.4322 427.92 79.7481C427.712 79.1272 427.476 78.718 427.215 78.4252H427.218ZM276.469 318.67C276.596 323.507 276.963 330.146 277.327 336.528L277.422 338.182C277.821 345.185 278.23 352.42 278.314 356.918C277.94 356.975 277.591 356.992 277.365 356.967C277.126 353.634 275.383 321.482 275.386 314.814C275.386 314.574 275.45 314.483 275.683 314.384C276.042 314.232 276.533 314.229 276.953 314.281C276.568 315.333 276.416 316.712 276.466 318.666L276.469 318.67ZM333.926 314.225C317.635 318.726 300.585 323.207 297.248 323.859C293.692 324.561 292.588 331.688 292.263 334.993C286.943 336.397 282.287 336.446 279.793 336.327C279.397 329.366 279.062 323.231 278.939 318.61C278.882 316.398 279.055 315.255 279.563 314.557L279.588 314.532C279.637 314.479 279.68 314.43 279.718 314.37C280.29 313.773 281.274 313.519 282.879 313.262C295.336 311.265 298.86 309.417 305.891 305.737C313.278 301.871 323.533 296.844 328.8 295.041C327.671 301.885 329.651 309.293 333.93 314.232L333.926 314.225ZM348.274 138.136C348.224 138.143 348.178 138.147 348.129 138.147C347.706 138.147 347.332 137.84 347.261 137.406C347.198 137.018 345.698 127.814 345.522 122.688C345.504 122.201 345.885 121.792 346.372 121.774C346.383 121.774 346.393 121.774 346.404 121.774C346.877 121.774 347.268 122.148 347.286 122.625C347.462 127.634 348.99 137.025 349.004 137.117C349.081 137.596 348.757 138.052 348.277 138.129L348.274 138.136ZM202.884 57.1245C203.31 57.0116 203.66 56.7364 203.868 56.3484C204.291 55.5476 204.21 55.2618 200.647 50.4676C199.098 48.3827 197.042 45.7121 196.181 44.7702C195.211 43.7084 195.165 42.7453 195.281 42.523C195.429 42.5125 196.015 42.6218 196.985 43.4579C197.715 44.2869 198.594 45.3311 199.444 46.3401C201.543 48.8272 203.907 51.6317 205.692 53.318C205.215 53.7166 204.693 54.1682 204.436 54.4363C204.206 54.6727 204.083 54.9866 204.09 55.3147C204.097 55.6428 204.231 55.9533 204.468 56.1826C204.944 56.6412 205.755 56.6235 206.214 56.1508C207.262 55.0643 212.913 50.7533 213.463 50.4782C213.866 50.3265 214.141 49.9843 214.229 49.5927C214.807 50.905 215.308 52.0268 215.629 52.7465C214.218 53.8119 213.396 55.8756 213.569 57.9958C213.622 58.6308 214.162 59.1318 214.8 59.1318C214.836 59.1318 214.867 59.1318 214.899 59.1282C215.227 59.1036 215.527 58.9483 215.739 58.6979C215.954 58.4474 216.056 58.1264 216.028 57.7983C215.89 56.0979 216.727 54.8314 217.386 54.5633C218.025 54.5598 218.727 54.2388 219.277 53.6955C220.272 52.7112 220.6 51.2155 220.177 49.5927C219.517 47.0739 219.644 45.4828 219.99 44.7667C220.342 45.8709 220.727 46.7669 221.133 47.7088C221.761 49.1693 222.47 50.8239 223.327 53.819C224.583 58.2075 222.061 60.7651 221.955 60.871C221.517 61.2943 221.454 61.9893 221.814 62.4832L224.35 65.9827C222.54 66.8999 219.422 68.6497 216.3 71.2109C214.97 68.8155 214.772 68.6497 214.352 68.4804C214.204 68.4204 214.049 68.3922 213.894 68.3922C213.809 68.3922 213.724 68.4028 213.64 68.4204C210.652 69.0484 207.635 67.2809 206.605 65.7605C205.332 63.8802 200.125 57.7277 195.944 55.0008C194.851 54.2882 194.473 53.7837 194.346 53.5544C194.565 53.4909 195.017 53.445 195.556 53.6531C196.181 53.893 197.218 54.5492 198.23 55.1913C200.552 56.6623 201.811 57.4173 202.887 57.1351L202.884 57.1245ZM208.038 36.7445C208.345 36.8539 209.29 37.5665 210.186 39.9478C211.019 42.1561 212.423 45.4511 213.643 48.2521C213.333 48.0722 212.945 48.0264 212.585 48.1675C212.447 48.2204 212.172 48.358 211.347 48.94C210.613 47.0351 209.138 43.0628 208.154 39.4574C207.695 37.7817 207.911 36.9738 208.041 36.7445H208.038ZM207.628 51.7446C205.939 50.21 203.392 47.1903 201.331 44.7455C200.474 43.7295 199.589 42.6818 198.844 41.8316C197.698 40.0924 197.645 39.1399 197.712 38.8647C197.969 38.8788 198.774 39.1364 199.878 40.4028C202.026 42.8652 206.81 48.1922 209.029 50.6581C208.563 51.0144 208.087 51.3848 207.632 51.7482L207.628 51.7446ZM268.931 110.747C268.864 110.324 268.575 109.96 268.18 109.798C267.785 109.636 267.323 109.692 266.981 109.946C265.291 111.188 256.577 114.829 252.072 116.635C243.567 112.574 244.827 111.463 241.525 108.044C249.047 105.399 248.173 98.6217 248.258 98.4276C248.452 97.9937 248.374 97.4786 248.064 97.1188C247.753 96.759 247.256 96.6108 246.797 96.7378C241.372 98.2477 230.689 107.832 228.315 107.836C225.387 103.101 222.794 100.407 220.942 98.858C222.583 100.23 223.891 97.1118 220.942 98.858C228.005 107.681 233.494 113.999 237.258 117.643C244.585 124.727 274.811 132.679 281.542 134.383C280.301 134.068 281.181 133.372 275.025 132.659C275.025 132.659 268.96 110.941 268.928 110.751L268.931 110.747ZM336.664 292.392C336.636 292.064 336.477 291.764 336.223 291.552C335.997 291.365 335.725 291.266 335.443 291.266C335.489 290.772 335.739 290.353 336.001 290.127C336.353 289.827 336.727 289.802 337.147 290.049C337.609 290.324 338.191 290.268 338.59 289.912C338.992 289.559 339.119 288.991 338.907 288.497C336.914 283.865 334.79 279.162 332.737 274.615L332.691 274.513C325.798 259.238 319.282 244.809 318.383 234.875C319.822 229.946 321.043 225.096 322.006 220.46C322.143 219.797 321.713 219.141 321.046 219C320.38 218.862 319.727 219.293 319.589 219.959C318.623 224.605 317.402 229.449 315.959 234.36L315.949 234.409C310.671 252.39 302.797 270.029 295.791 284.913C292.03 292.903 289.279 296.911 286.598 298.315C284.163 299.588 281.535 298.749 277.545 297.475L277.38 297.422C276.554 297.161 275.704 296.89 274.776 296.614C272.176 295.838 267.156 293.355 262.087 290.765C260.81 282.539 264.39 274.284 268.433 270.671L268.581 270.544C269.248 269.973 269.911 269.556 270.5 269.348C271.605 268.957 272.042 269.447 272.324 269.976C272.575 270.449 273.1 270.703 273.63 270.611C274.159 270.516 274.564 270.096 274.638 269.563C274.681 269.249 279.076 237.82 282.611 228.236C286.404 229.319 289.395 230.282 291.512 231.1C291.656 231.157 291.805 231.185 291.956 231.185C292.418 231.185 292.842 230.927 293.053 230.518C293.177 230.278 296.137 224.366 299.799 200.172C307.888 203.534 321.41 205.866 332.924 205.866C333.901 205.866 334.914 205.845 336.018 205.799C336.494 218.982 336.671 228.902 336.671 229.001C336.681 229.65 337.196 230.179 337.846 230.215C343.553 230.497 349.635 229.904 354.61 228.592C355.544 235.139 359.587 263.619 361.7 280.75C361.93 282.613 362.17 284.394 362.381 285.968L362.469 286.631C364.561 302.079 364.995 305.293 351.297 309.311C347.349 310.468 342.403 311.872 336.6 313.488C331.954 308.866 329.894 301.225 331.439 294.335C332.37 294.156 333.961 293.88 335.535 293.739C336.212 293.679 336.717 293.08 336.657 292.402L336.664 292.392ZM327.058 173.1C329.478 173.1 331.937 173.029 334.367 172.895C334.544 175.449 334.716 178.183 334.882 181.03C323.283 181.669 315.201 181.81 302.504 178.773C302.737 176.24 302.949 173.58 303.132 170.853C310.096 172.303 318.57 173.1 327.054 173.1H327.058ZM309.429 61.3472H309.426C309.429 61.2343 309.433 61.1285 309.436 61.0297C310.879 60.9204 311.786 60.5746 312.195 59.982C312.329 59.7879 312.337 60.9521 313.025 59.7738C313.047 61.5095 313.525 60.0243 313.846 60.3453C313.881 60.3806 313.92 60.4159 313.955 60.4512C312.657 60.6734 311.497 60.8851 310.583 61.0721C310.17 61.1567 309.789 61.2484 309.429 61.3507V61.3472ZM307.362 64.8468H307.369C307.867 64.5328 308.449 64.2612 309.101 64.0319L309.119 64.0248C309.383 63.9296 309.666 63.8414 309.959 63.7602C309.902 63.8378 309.846 63.9154 309.793 63.9966C308.985 65.1749 308.54 66.4978 308.466 67.9406L308.456 68.1699C308.456 68.1911 308.456 68.2123 308.456 68.2299C308.449 68.7943 308.502 69.3764 308.611 69.9585C309.01 72.0434 309.754 73.6909 310.823 74.8656C306.286 74.7386 305.637 73.0982 305.147 70.4841C304.667 67.9159 305.39 66.0709 307.366 64.8432L307.362 64.8468ZM337.814 57.6536C333.535 57.8653 328.359 58.4051 323.586 59.0259C323.805 58.8072 325.057 61.1515 326.613 58.6503C326.722 60.5836 326.197 57.8477 326.613 58.1123C327.615 58.7578 331.75 57.7383 332.342 57.3538C332.804 57.0504 333.041 56.553 332.963 56.0661C332.942 55.8827 332.9 55.0184 332.857 53.9777C333.094 54.6092 333.326 55.3535 333.517 56.2108C333.651 56.7929 334.198 57.2091 334.819 57.1703C335.362 57.1421 336.431 57.0716 337.733 56.9446C337.757 57.1633 337.786 57.4032 337.81 57.6536H337.814ZM296.68 77.6279V77.6067C296.648 77.2645 296.645 76.9153 296.673 76.5731C296.673 76.5625 296.673 76.5484 296.673 76.5343C296.676 76.4849 296.684 76.432 296.687 76.3791C296.691 76.3473 296.694 76.312 296.701 76.2732C296.708 76.2203 296.715 76.1639 296.726 76.1074C296.733 76.0686 296.74 76.0298 296.747 75.991C296.761 75.9204 296.775 75.8499 296.796 75.7793C296.803 75.7546 296.811 75.7299 296.818 75.7053C296.842 75.6206 296.87 75.5359 296.902 75.4513C296.902 75.4442 296.906 75.4407 296.909 75.4336C297.135 74.8656 297.474 74.5446 297.946 74.4564C298.461 74.3576 299.128 74.5517 299.777 74.9891C300.335 75.3666 300.871 75.9169 301.333 76.5801C301.591 76.9541 301.834 77.3739 302.049 77.8325C302.19 78.1324 302.441 78.3581 302.755 78.471C303.065 78.5804 303.4 78.5627 303.697 78.4216C303.993 78.2805 304.219 78.0336 304.328 77.7231C304.441 77.4127 304.423 77.0776 304.282 76.7812C304.258 76.7318 304.233 76.6789 304.208 76.626C305.221 76.5907 306.078 76.5625 306.508 76.5484C307.747 77.0881 309.306 77.3386 311.415 77.3386C312.777 77.3386 314.368 77.2328 316.287 77.0105C320.559 76.5166 326.024 75.8252 330.381 75.2678C330.578 75.8711 330.628 76.2909 330.518 76.4673C330.317 76.7953 329.375 77.201 328.465 77.5891C328.236 77.6879 327.996 77.7937 327.746 77.9031L327.622 77.956C327.319 78.09 327.089 78.3299 326.969 78.6404C326.849 78.9473 326.86 79.2859 326.994 79.5858C327.192 80.0338 327.633 80.3231 328.123 80.3231C328.296 80.3231 328.472 80.2843 328.627 80.2138C328.814 80.1291 328.994 80.0515 329.171 79.9774L329.446 79.8574C331.972 78.7709 333.591 77.8149 332.854 74.9503C335.037 74.6716 337.059 74.4141 338.699 74.2095C338.833 85.9323 337.472 89.58 334.925 92.1588C330.257 96.8754 324.207 96.8507 318.905 96.4591C318.577 96.4344 318.256 96.5403 318.005 96.759C317.755 96.9742 317.603 97.2741 317.582 97.6021C317.557 97.9302 317.663 98.2513 317.878 98.4982C318.094 98.7487 318.393 98.9004 318.721 98.9215C320.425 99.0485 321.699 99.105 322.951 99.0909L323.114 109.166C323.124 109.858 323.727 110.426 324.433 110.38C324.705 112.514 325.082 114.782 325.604 117.453C313.631 117.227 306.265 116.624 303.866 116.402C303.757 112.641 303.637 109.653 303.552 107.692C303.838 107.702 304.117 107.61 304.342 107.438C304.61 107.229 304.787 106.919 304.819 106.58C305.252 102.178 305.27 96.1628 304.879 86.5179C305.556 86.5249 306.131 85.9711 306.131 85.2832C306.131 84.5952 305.577 84.0484 304.896 84.0484C301.453 84.0484 299.477 82.6973 298.423 81.5649C297.4 80.4642 296.796 79.106 296.673 77.6279H296.68ZM303.298 168.359C303.46 165.688 303.601 162.891 303.721 160.023C310.537 161.377 317.656 162.062 324.885 162.062C327.664 162.062 330.557 161.956 333.482 161.744C333.729 164.418 333.969 167.336 334.194 170.429C323.639 171.015 312.146 170.246 303.295 168.359H303.298ZM303.817 157.528C303.908 155.017 303.982 152.427 304.035 149.824C310.248 150.677 315.737 151.076 321.276 151.076C324.779 151.076 328.363 150.91 332.215 150.565C332.572 153.087 332.917 156.018 333.245 159.289C323.061 160.015 313.162 159.423 303.817 157.528ZM304.085 147.337C304.131 144.529 304.159 141.636 304.169 138.722C310.459 139.755 317.952 140.323 325.325 140.323C327.114 140.323 328.846 140.288 330.48 140.225C331.002 142.952 331.453 145.541 331.855 148.123C322.366 148.959 314.019 148.723 304.085 147.34V147.337ZM304.173 136.217C304.173 133.324 304.148 130.365 304.109 127.401C309.902 128.375 317.127 128.957 323.533 128.957C325.198 128.957 326.726 128.918 328.084 128.837C328.705 131.613 329.365 134.601 330 137.766C326.271 137.903 315.254 138.09 304.173 136.217ZM304.071 124.889C304.035 122.879 303.993 120.864 303.944 118.889C306.921 119.16 314.322 119.725 326.119 119.933C326.571 122.081 327.079 124.346 327.537 126.392C321.893 126.678 312.354 126.332 304.074 124.889H304.071ZM295.569 70.2513C295.59 70.0714 295.622 69.9444 295.646 69.8597C295.904 69.8033 296.299 69.7363 296.825 69.6587L296.913 69.6445C298.447 69.4188 300.74 69.1577 302.536 68.9743C302.529 69.5987 302.589 70.2584 302.716 70.9357C302.963 72.2445 303.33 73.3099 303.831 74.1636C303.439 74.1777 303.03 74.1954 302.614 74.213C301.079 72.4985 299.22 71.7012 297.491 72.0258C296.856 72.1457 296.278 72.4244 295.798 72.8336C295.519 71.8071 295.488 70.8546 295.569 70.2513ZM301.559 187.532L301.573 187.416C301.823 185.451 302.056 183.38 302.271 181.246C310.036 183.084 316.57 183.87 324.041 183.87C327.407 183.87 330.882 183.719 335.027 183.493C335.186 186.343 335.337 189.338 335.478 192.407C335.394 192.407 335.309 192.407 335.224 192.407C321.381 192.407 309.161 190.64 301.555 187.532H301.559ZM300.187 197.632C300.536 195.233 300.889 192.686 301.231 190.058C309.239 193.166 321.297 194.877 335.27 194.877H335.591C335.711 197.611 335.828 200.451 335.937 203.322C323.939 203.792 308.706 201.368 300.183 197.632H300.187ZM338.643 108.044C334.551 107.014 330.395 106.492 326.278 106.492C326.035 106.492 325.791 106.492 325.548 106.499L325.428 98.9709C324.433 108.76 328.021 111.745 330.977 108.76C332.737 106.979 332.78 109.346 333.517 105.127C336.113 114.906 342.456 103.596 338.643 108.041V108.044ZM340.774 71.4719C340.269 71.5284 339.676 71.5989 339.003 71.6871C337.179 71.9094 334.773 72.2163 332.039 72.5655L330.977 72.6996C330.585 72.749 330.194 72.8019 329.799 72.8478L329.605 72.8725L329.301 72.9113C324.955 73.4651 320.059 74.0825 316.086 74.5446C313.261 74.5728 311.701 73.003 311.031 69.4858C310.745 67.983 311.02 66.5648 311.828 65.3795C312.823 63.9225 314.555 62.8959 316.707 62.4902C322.828 61.5236 331.7 60.3877 338.301 60.0913H338.392C338.936 60.0631 339.465 60.0455 339.962 60.0314H340.244C344.756 60.0772 345.346 63.9542 345.416 65.1502C345.582 67.8983 344.185 71.1227 342.068 71.3238C341.758 71.352 341.313 71.4014 340.763 71.4684L340.774 71.4719ZM337.814 47.9814C336.904 44.7111 336.038 48.4647 335.025 47.9814C334.489 47.7203 333.739 48.3755 333.517 48.4814C332.727 48.8765 330.222 49.1482 330.356 52.9053C330.367 53.1804 332.293 47.0359 332.342 47.9814C331.746 48.126 329.682 48.3967 329.025 48.4814C328.972 47.5606 328.264 53.3145 328.261 51.3813L328.525 46.4814C328.525 45.6735 328.261 49.5574 328.268 48.7531C328.278 48.0722 327.731 47.5113 327.033 47.5042C326.363 47.5042 325.809 48.051 325.798 48.7284V49.0106C325.791 49.7514 322.525 48.864 322.525 49.4814C321.026 51.9684 321.093 51.3389 320.525 52.1186C319.559 52.3973 320.303 49.2662 318.525 49.4814C318.501 47.9327 315.91 53.8436 315.945 53.4521C316.04 52.8982 311.828 51.3813 315.236 52.1186C312.195 51.1908 310.713 50.651 310.283 51.3813L308.611 54.6303C307.775 56.0767 310.65 57.8018 310.283 58.3945C309.969 58.4827 309.165 58.5885 308.3 58.5885H308.255C307.591 58.5885 307.052 59.1071 307.02 59.7738C307.006 60.109 306.967 61.0932 306.921 62.2856V62.2927C304.949 63.284 303.619 64.6774 302.977 66.4413C301.908 66.5472 298.67 66.8788 296.497 67.2033C294.338 59.16 311.126 61.7847 316.707 56.0661C322.831 49.7938 332.039 54.6303 332.039 54.6303C332.039 54.6303 328.463 52.5776 320.525 38.9145C326.278 53.9777 342.41 50.0054 342.94 53.6214C340.685 54.2105 340.669 48.8614 339.025 48.9814L337.814 47.9814ZM302.406 86.285C302.631 91.7355 302.843 98.5158 302.561 103.783C302.458 103.751 302.353 103.733 302.247 103.726C285.892 103.063 259.183 101.691 256.403 100.805C255.726 100.072 252.925 96.7026 248.258 91.0193C251.517 90.8994 256.403 100.805 256.403 100.805L264.36 101.695C266.921 101.759 270.003 102.246 272.525 102.246C278.477 102.246 281.348 103.707 284.128 102.893C289.96 101.182 298.902 108.45 302.561 103.783C302.97 105.032 302.085 96.6426 302.977 97.6021C304.427 99.1614 302.049 86.5179 302.406 86.285ZM282.364 119.679C282.364 119.192 282.759 118.797 283.246 118.797C283.733 118.797 284.128 119.192 284.128 119.679C284.128 119.739 284.128 125.623 283.846 129.412C283.811 129.874 283.426 130.23 282.968 130.23C282.946 130.23 282.925 130.23 282.9 130.23C282.414 130.195 282.05 129.772 282.086 129.285C282.361 125.56 282.364 119.739 282.364 119.682V119.679ZM210.528 253.3C210.592 253.269 210.758 253.209 211.012 253.209C211.142 253.209 211.276 253.226 211.414 253.258C211.848 253.364 212.394 253.653 212.652 254.433C212.119 254.754 211.696 255.142 211.393 255.593C210.818 256.44 207.05 263.573 200.199 276.788C197.8 281.417 195.133 286.578 192.268 292.138C191.789 291.922 191.418 291.675 191.263 291.45C191.245 291.421 191.242 291.407 191.238 291.407C191.626 290.342 199.024 275.885 203.452 267.235L204.136 265.898C207.445 259.428 210.07 254.295 210.532 253.3H210.528ZM259.451 289.4C258.414 288.867 257.349 288.317 256.266 287.756L256.206 287.724C246.614 282.775 234.679 276.612 224.414 272.491C224.265 272.431 224.11 272.403 223.955 272.403C223.648 272.403 223.345 272.516 223.112 272.735C221.598 274.142 216.455 279.416 214.92 281.099C212.359 281.117 207.508 280.669 202.524 277.667C209.054 265.073 212.924 257.731 213.435 256.983C213.594 256.751 213.887 256.535 214.282 256.362C214.398 256.338 214.508 256.299 214.613 256.242C216.215 255.724 218.635 255.907 220.385 256.676C228.044 260.053 238.341 262.462 247.46 264.6C255.066 266.381 262.267 268.064 265.738 269.881C262.154 273.804 258.799 281.374 259.451 289.404V289.4Z" fill="#EEE4F4"/>
<path d="M319.415 81.9502C319.383 83.8129 319.739 89.2316 324.823 90.2687C325.292 90.3604 325.754 90.4098 326.188 90.4098C327.574 90.4098 328.851 89.9371 329.882 89.0446C331.557 87.5876 332.471 85.0406 332.4 82.049C332.46 81.9608 332.513 81.8691 332.559 81.7774C332.855 81.1635 332.598 80.4262 331.988 80.1299C331.691 79.9853 331.356 79.9641 331.046 80.0735C330.735 80.1793 330.485 80.4016 330.347 80.6838C330.347 80.6873 330.333 80.7049 330.294 80.7402C329.942 81.033 328.619 81.474 326.428 81.4952C323.937 81.5199 322.12 81.0119 321.471 80.5356C321.447 80.5109 321.422 80.4933 321.404 80.4792C321.334 80.4157 321.316 80.3874 321.316 80.3839C321.164 80.0911 320.91 79.8724 320.596 79.7701C320.282 79.6678 319.947 79.696 319.658 79.8442C319.365 79.9923 319.147 80.2463 319.044 80.5603C318.942 80.8743 318.967 81.2094 319.118 81.5057C319.196 81.6539 319.295 81.7985 319.418 81.9467L319.415 81.9502ZM321.962 83.4072C323.179 83.7635 324.72 83.9646 326.29 83.9646H326.449C327.215 83.9575 328.597 83.894 329.878 83.5554C329.698 85.1535 329.134 86.427 328.266 87.1819C327.493 87.8557 326.474 88.085 325.32 87.8522C322.992 87.3795 322.198 85.2805 321.965 83.4107L321.962 83.4072Z" fill="#EEE4F4"/>
<path d="M301.768 83.375C301.825 83.3821 301.881 83.3856 301.938 83.3856C302.552 83.3856 303.077 82.927 303.162 82.3167C303.208 81.9886 303.12 81.664 302.922 81.403C302.721 81.1419 302.432 80.9726 302.107 80.9267C301.169 80.7997 300.699 79.9813 300.505 79.505C300.177 78.7007 300.248 78.0375 300.294 77.8999C300.745 77.4448 300.777 76.704 300.35 76.2136C299.902 75.7021 299.119 75.6492 298.608 76.0972C297.602 76.9756 297.669 78.6937 298.029 79.9001C298.611 81.8369 300.012 83.1351 301.775 83.375H301.768Z" fill="#EEE4F4"/>
<path d="M593.667 107.29C590.051 101.307 576.229 102.693 555.729 111.086C554.561 107.823 553.577 105.142 552.741 102.919C554.403 101.653 556.131 99.4479 556.368 97.497C557.447 88.6847 553.676 67.1406 548.935 64.784C543.745 62.2052 537.847 66.2904 532.114 70.2591C531.994 70.3403 531.878 70.4214 531.761 70.5061L529.451 63.768C530.449 63.7081 531.433 63.4999 532.326 63.1542C534.605 62.2793 536.309 60.5436 537.254 58.1342C537.766 56.8218 537.946 55.5906 537.783 54.4723C543.382 51.9712 545.086 47.5967 544.289 44.5452C543.897 43.0671 542.969 41.8994 541.71 41.2855C542.264 40.3189 542.493 39.0983 542.327 37.9377C542.182 36.9252 541.791 36.0362 541.191 35.3483C543.011 34.3288 549.62 29.3722 550.27 27.3332C551.321 24.0241 544.289 22.86 548.935 19.9213C543.27 18.7957 544.289 15.2894 544.289 11.3242C537.254 13.0704 536.277 6.88224 534.598 5.79568C528.16 6.82832 527.27 6.29568 526.752 2.79568C525.683 -4.43522 515.77 6.29568 514.352 0.29571C511.314 0.592042 510.463 5.33048 505.349 0.2957C503.303 -1.71866 506.305 7.70472 495.531 1.79565C493.77 6.29565 486.922 2.14225 487.463 6.79568C487.841 10.0401 483.046 8.62895 481.212 10.4458C479.656 11.9839 483.27 16.7957 476.27 17.7957C475.222 21.2988 480.27 25.7957 475.27 28.455C480.27 31.7957 476.001 35.5529 476.27 37.1757C476.418 38.0506 482.059 36.6395 484.126 37.7542L484.115 37.7648L484.133 37.7754C483.032 39.1971 482.394 40.9892 482.33 42.8766C482.179 47.2757 484.951 51.2444 488.511 51.7242C488.895 51.7736 489.474 51.8653 490.409 52.0241C490.483 58.2964 491.047 69.042 493.944 72.9402C496.716 76.6761 500.992 78.6482 506.305 78.6482C506.887 78.6482 507.497 78.6235 508.115 78.5741L515.198 92.7099C515.138 92.7663 515.082 92.8228 515.022 92.8792C503.758 103.794 503.035 108.991 503.92 120.985C502.361 124.199 501.348 126.157 500.738 127.296C489.777 118.3 476.075 109.252 467.288 105.216C466.649 104.923 465.908 104.845 465.083 104.979C463.718 103.568 461.396 101.275 459.802 100.316C460.335 98.6541 460.818 96.2376 460.363 93.6835C460.116 92.3112 459.992 90.7484 459.883 89.3691L459.872 89.2385C459.615 85.9401 459.47 84.1197 457.985 83.7493C457.114 83.5306 456.278 83.7387 455.632 84.342C454.193 85.6931 454.126 88.66 454.433 90.3216C454.503 90.7096 454.51 91.0236 454.486 91.267C453.981 90.6355 453.138 89.4361 451.956 87.2877C451.191 85.8977 450.549 84.1197 449.917 82.3841C448.718 79.0856 447.853 76.7008 446.051 76.5738C445.017 76.5033 444.407 76.9478 444.075 77.3358C444.001 77.424 443.934 77.5157 443.874 77.6145C443.465 77.0677 443.073 76.6656 442.689 76.3974C441.831 75.8048 441.073 75.8648 440.59 76.02C439.902 76.2458 439.447 76.7608 439.168 77.2053C438.367 77.4064 437.905 77.8932 437.658 78.2777C436.621 79.8688 437.341 82.7686 438.184 85.0334C438.025 85.1252 437.88 85.2416 437.75 85.3721C435.746 87.4041 437.75 93.2073 439.778 97.7158C443.246 105.42 445.624 107.519 449.571 109.156C449.705 109.456 451.258 112.825 454.415 115.859C453.759 118.018 453.808 119.997 454.556 121.754C456.927 127.3 461.075 128.178 463.305 128.651C463.637 128.721 464.247 128.848 464.381 128.915C475.74 139.548 484.299 146.3 491.252 150.114C474.446 164.267 466.875 175.785 470.477 181.751C471.955 184.196 475.06 185.434 479.699 185.434C483.96 185.434 489.495 184.404 496.152 182.372C503.317 180.181 511.272 176.988 519.799 172.878L520.116 172.727L520.148 172.713C520.677 172.459 521.213 172.201 521.75 171.937L522.035 171.795C528.6 168.546 535.296 164.87 541.939 160.856C550.155 155.889 557.856 150.682 564.841 145.376L565.229 145.083H565.236C565.508 144.871 565.773 144.667 566.044 144.459C566.27 144.286 566.499 144.113 566.722 143.94L566.817 143.866C572.786 139.224 577.989 134.669 582.286 130.326C589.448 123.084 597.24 113.213 593.674 107.304L593.667 107.29ZM462.543 105.918C461.411 106.546 460.208 107.459 459.114 108.525C457.636 109.964 456.345 111.672 455.442 113.383C453.695 111.52 452.581 109.608 452.101 108.694C454.38 105.131 457.579 103.201 458.768 102.577C459.625 103.152 460.973 104.348 462.543 105.918ZM439.397 87.4394C439.468 87.6087 439.556 87.8274 439.662 88.0991C440.177 89.4114 441.041 91.6127 442.978 94.4667C443.211 94.8018 443.592 95.0029 443.997 95.0029C444.248 95.0029 444.488 94.9288 444.689 94.7912C444.964 94.6078 445.151 94.3256 445.211 94.001C445.275 93.6765 445.204 93.3484 445.021 93.0768C443.243 90.4556 442.473 88.4977 441.958 87.1924C441.644 86.3952 441.398 85.7566 440.978 85.3474C440.025 83.1778 439.306 80.4438 439.697 79.6712C439.958 80.0628 440.516 81.1599 441.493 84.1797C442.604 87.6369 444.894 91.1576 445.151 91.5492C445.38 91.8949 445.765 92.1031 446.178 92.1031C446.421 92.1031 446.657 92.0325 446.858 91.8949C447.426 91.521 447.585 90.7519 447.208 90.1804C447.187 90.1452 444.883 86.6386 443.839 83.4248C443.504 82.3841 443.2 81.5057 442.914 80.7648C443.377 81.6538 443.807 82.6346 444.103 83.4177L444.128 83.4812L444.142 83.5165L444.153 83.5412C445.253 86.3458 447.172 89.7571 447.73 90.5191C447.963 90.8366 448.337 91.0271 448.728 91.0271C448.986 91.0271 449.243 90.9424 449.455 90.7907C449.723 90.5967 449.899 90.3074 449.952 89.9794C450.002 89.6548 449.924 89.3267 449.73 89.0657C449.324 88.5048 447.522 85.3403 446.467 82.6592C445.952 80.5249 445.885 79.5936 445.906 79.202C446.41 79.9464 447.257 82.2818 447.603 83.2378L447.642 83.3401C448.259 85.0334 448.958 86.9525 449.797 88.473C453.127 94.5302 454.309 94.382 454.877 94.3079C455.389 94.248 455.879 93.9234 456.264 93.4013C456.637 92.8863 457.212 91.7468 456.867 89.8735C456.637 88.6247 456.8 87.1783 457.11 86.4728C457.248 87.2559 457.347 88.5259 457.417 89.4432C457.523 90.8331 457.657 92.5617 457.936 94.1175C458.444 96.9538 457.477 99.6631 457.04 100.69C457.036 100.7 457.033 100.707 457.029 100.718C455.449 101.628 452.63 103.568 450.393 106.817C447.486 105.618 445.405 104.172 442.04 96.6927C439.528 91.1153 439.288 88.3566 439.404 87.4394H439.397ZM493.644 151.327C497.154 152.985 500.181 153.793 502.894 153.793C505.437 153.793 507.695 153.049 509.6 151.581C510.122 151.179 510.686 150.685 511.276 150.11C513.883 156.845 517.146 165.647 518.956 170.554C492.353 183.398 475.504 185.272 472.597 180.46C471.165 178.093 472.664 173.736 476.823 168.197C480.563 163.219 486.377 157.388 493.647 151.324L493.644 151.327ZM521.185 169.464C518.874 163.195 515.664 154.569 513.152 148.135C522.222 137.925 535.331 114.751 536.806 112.13C537.134 111.538 536.922 110.783 536.33 110.448C535.737 110.119 534.982 110.331 534.647 110.924C534.467 111.245 516.536 143.129 508.09 149.627C505.007 152.005 500.795 151.924 495.214 149.376C494.6 149.098 494.035 148.823 493.482 148.533C486.687 145.016 477.712 137.999 466.046 127.084C465.517 126.591 464.776 126.432 463.82 126.227C461.777 125.793 458.694 125.141 456.828 120.78C455.459 117.57 457.855 113.203 460.836 110.299C463.368 107.83 465.566 107.145 466.251 107.459C475.956 111.915 492.116 122.911 503.049 132.493C503.56 132.941 504.344 132.888 504.792 132.376C505.01 132.129 505.116 131.812 505.095 131.484C505.074 131.156 504.926 130.856 504.679 130.637C503.959 130.009 503.299 129.441 502.671 128.908C503.497 127.409 505.645 123.306 510.013 113.88C515.925 101.124 526.865 101.984 532.862 103.632C541.092 105.893 545.453 106.479 550.564 104.143C551.467 106.556 552.462 109.273 553.454 112.049L553.729 112.822C553.87 113.217 554.011 113.612 554.152 114.014L554.276 114.37C557.701 124.058 561.444 135.16 564.023 142.889C556.939 148.315 549.086 153.642 540.665 158.732C534.09 162.704 527.539 166.313 521.185 169.467V169.464ZM516.74 94.6501C524.565 87.0689 532.199 80.9201 536.76 77.2441C539.364 75.1451 540.531 74.1961 540.969 73.6811C542.987 71.2998 541.844 68.9115 541.703 68.6434C541.48 68.2307 541.054 67.9943 540.613 67.9943C540.415 67.9943 540.214 68.0402 540.027 68.1425C539.431 68.467 539.205 69.2184 539.53 69.8146C539.551 69.8605 540.076 70.9188 539.089 72.0865C538.782 72.4499 537.155 73.7551 535.275 75.2721L534.598 75.8189C534.34 76.027 534.076 76.2422 533.8 76.4609L532.59 72.9332L532.792 72.7921C533.042 72.6192 533.292 72.4463 533.546 72.27C538.898 68.5658 543.953 65.0662 547.834 66.9995C550.586 68.3647 555.023 88.1202 553.916 97.1972C553.736 98.6683 551.82 100.725 550.663 101.342C545.812 103.935 541.953 103.572 533.515 101.254C526.766 99.3985 514.451 98.4319 507.773 112.839C507.19 114.102 506.647 115.263 506.139 116.335C505.924 108.013 507.716 103.388 516.74 94.6501ZM566.087 141.284C563.98 134.969 560.1 123.437 556.555 113.418C575.037 105.854 588.76 103.946 591.554 108.567C593.635 112.014 589.511 119.493 580.522 128.573C576.49 132.651 571.632 136.927 566.083 141.284H566.087ZM485.805 30.734C486.267 30.547 486.567 30.1025 486.571 29.6015C486.574 29.1041 486.281 28.6526 485.826 28.455C483.66 27.5166 482.609 23.8548 483.576 20.6234C484.182 18.5843 486.525 14.0017 495.108 15.501C495.432 15.5575 495.76 15.4799 496.032 15.2894C496.3 15.0989 496.48 14.8167 496.533 14.4956C496.59 14.1711 496.519 13.843 496.328 13.5749C496.138 13.3068 495.856 13.1269 495.531 13.0704C494.868 12.954 494.205 12.8693 493.52 12.8129C493.383 10.0118 495.693 8.33968 497.958 7.70468C500.837 6.89682 504.298 7.57767 505.349 10.4458C505.557 11.0031 506.132 11.3347 506.714 11.236C507.3 11.1372 507.73 10.6327 507.741 10.0401C507.783 7.46479 513.152 10.6998 515.745 10.4458C519.21 10.1106 520.469 7.0485 521.714 11.3101C521.707 11.3171 521.697 11.3206 521.686 11.3242C521.404 11.497 521.206 11.7722 521.132 12.0932C521.058 12.4142 521.111 12.7459 521.287 13.0246C521.46 13.3068 521.735 13.5043 522.056 13.5784C522.378 13.6525 522.709 13.5996 522.988 13.4267C524.977 12.1955 528.396 11.7263 530.805 13.2856C532.993 14.7002 533.875 17.533 533.349 21.4771C533.261 22.1509 533.737 22.7718 534.4 22.86C534.464 22.8706 534.52 22.8741 534.58 22.8741C535.194 22.8706 535.716 22.4084 535.797 21.7981C535.815 21.6641 535.829 21.5371 535.839 21.4101C538.432 20.9091 540.083 21.9216 541.018 22.8741C542.715 24.6133 543.361 27.5202 542.592 29.9437C541.907 32.0886 540.232 33.5103 537.871 33.9442C537.247 34.0571 536.813 34.6216 536.863 35.2601C536.915 35.8916 537.438 36.3784 538.073 36.3925C539.201 36.4137 539.745 37.4297 539.868 38.294C540.016 39.3382 539.642 40.5518 538.468 40.9151C537.854 41.1056 537.487 41.7477 537.632 42.3756C537.78 43.0106 538.379 43.4128 539.025 43.314C540.433 43.0953 541.526 43.8079 541.886 45.1731C542.422 47.2298 541.061 50.2743 536.827 52.1899C536.415 51.6572 535.896 51.2197 535.31 50.9164C533.366 49.9215 530.34 50.2143 527.93 53.0718C526.925 53.1988 525.676 53.1777 525.15 52.4333C525.14 52.4192 525.133 52.4051 525.122 52.391C525.806 51.7842 526.406 51.0857 526.904 50.2919L534.989 49.8616C535.497 49.8333 535.931 49.5017 536.093 49.0219C537.247 45.5929 536.4 41.0844 536.298 40.58C536.178 40.0155 535.695 39.6098 535.113 39.5957H535.07C534.203 39.5746 531.105 39.5181 527.147 39.571C526.801 38.9748 526.389 38.4351 525.926 37.9588C526.657 36.0927 527.81 34.6992 527.941 34.544C528.272 34.1665 528.339 33.6303 528.11 33.1752C527.881 32.7236 527.408 32.4591 526.904 32.5014C519.506 33.1258 517.195 31.75 516.479 30.8715C515.893 30.1589 515.798 29.15 516.186 27.7918C516.331 27.3014 516.155 26.7723 515.745 26.4654C515.343 26.1584 514.786 26.1302 514.352 26.3983C510.436 28.8043 508.358 29.7885 503.497 29.8309H503.377C499.641 29.8309 498.858 28.3174 498.784 28.1516C498.657 27.7459 498.332 27.439 497.916 27.3332C497.503 27.2238 497.055 27.3438 496.745 27.6436C495.478 28.8819 492.914 28.5291 492.811 28.515C492.25 28.4233 491.704 28.7267 491.481 29.2452C491.365 29.5134 491.167 30.3353 490.783 34.2547C488.959 34.5087 487.382 35.0731 486.087 35.941C485.103 35.5917 483.964 34.9426 483.773 33.7855C483.576 32.6072 484.447 31.2949 485.791 30.741L485.805 30.734ZM493.305 34.0642C493.404 33.0588 493.531 31.8629 493.644 31.0303C494.582 31.0374 496.036 30.9139 497.313 30.2471C498.258 31.2384 500.082 32.3109 503.532 32.2932C508.079 32.2544 510.559 31.4113 513.516 29.7638C513.6 30.7763 513.96 31.6759 514.581 32.4379C516.186 34.3887 519.457 35.2672 524.575 35.1119C524.314 35.5635 524.092 36.0009 523.898 36.4313H523.894L523.887 36.4419C523.192 36.0856 522.43 35.8245 521.616 35.6764C513.262 34.1453 499.14 33.8737 493.309 34.0677L493.305 34.0642ZM521.167 38.1C521.958 38.2446 522.674 38.5303 523.298 38.9572C523.482 39.0807 523.655 39.2218 523.824 39.3664C524.159 39.6592 524.466 39.9944 524.734 40.3789C524.921 40.64 525.094 40.9292 525.249 41.2467V41.3208L525.313 41.3808C525.845 42.5308 526.096 43.8996 526.011 45.2437C525.948 46.1962 525.69 47.6285 524.805 49.029C524.374 49.7134 523.849 50.306 523.231 50.7964C523.027 50.9587 522.811 51.1139 522.586 51.255C521.668 51.8336 520.61 52.2146 519.407 52.398C520.684 51.2197 521.658 49.6675 522.138 48.0024C523.365 43.7832 521.718 39.6169 518.042 37.6272C519.178 37.7754 520.226 37.9342 521.171 38.107L521.167 38.1ZM528.477 45.3989C528.548 44.2736 528.438 43.1129 528.16 42.0193C530.89 41.9946 533.014 42.0193 534.044 42.0369C534.199 43.1976 534.404 45.4871 533.98 47.438L528.054 47.7555C528.283 46.9864 528.424 46.1962 528.477 45.3989ZM486.775 38.5268C486.835 38.4739 486.902 38.428 486.962 38.3787C487.068 38.294 487.17 38.2023 487.283 38.1247C487.34 38.0823 487.403 38.047 487.463 38.0082C487.587 37.9271 487.71 37.8424 487.841 37.7648C487.918 37.719 488.003 37.6801 488.08 37.6378C488.2 37.5743 488.32 37.5073 488.447 37.4508C488.536 37.4085 488.634 37.3732 488.726 37.338C488.853 37.285 488.98 37.2286 489.114 37.1827L489.135 37.1757C489.714 36.9675 490.345 36.8088 491.009 36.71C491.351 36.6571 491.711 36.6218 492.077 36.5971C492.272 36.583 492.497 36.5724 492.751 36.5619C494.395 36.4948 497.655 36.456 501.878 36.5548C507.741 36.7876 513.615 38.0576 516.839 39.7862C519.894 41.4266 520.508 44.7463 519.76 47.311C518.991 49.9744 516.521 52.7155 511.911 52.4157C504.968 51.9712 496.935 50.6235 492.861 49.9321L492.568 49.8827H492.564L492.388 49.851C492.307 49.8368 492.226 49.8263 492.141 49.8086L490.395 49.5123C489.739 49.4065 489.209 49.3218 488.825 49.2724C486.532 48.9655 484.68 46.0727 484.786 42.9612C484.849 41.155 485.533 39.624 486.768 38.5303L486.775 38.5268ZM516.109 55.0297C516.945 55.0297 517.738 55.0121 518.469 54.9733C520.176 54.8816 521.725 54.4794 523.083 53.7844V53.7915L523.097 53.7844C523.111 53.8021 523.122 53.8232 523.136 53.8409C523.7 54.6417 524.84 55.5942 527.073 55.5942C527.108 55.5942 527.144 55.5942 527.179 55.5942C527.263 55.7071 527.366 55.8023 527.486 55.8764C527.764 56.0563 528.093 56.1163 528.414 56.0457C528.735 55.9752 529.01 55.7847 529.19 55.5095C530.767 53.0612 532.901 52.4474 534.192 53.1071C535.391 53.7209 535.688 55.3366 534.947 57.2275C534.256 58.9985 533.07 60.2156 531.43 60.847C530.52 61.1963 529.62 61.3092 528.89 61.3162C528.929 61.3162 528.971 61.3162 529.01 61.3056C531.948 60.8294 533.744 58.7833 534.224 56.97C534.538 55.7741 534.273 54.6981 533.518 54.0949C533.07 53.735 532.079 53.2588 530.474 54.0949C529.87 54.4089 529.634 55.1532 529.945 55.76C530.259 56.3632 531.003 56.5996 531.61 56.2891C531.712 56.2362 531.8 56.1974 531.871 56.1692C531.853 56.2786 531.821 56.4197 531.754 56.5855C531.394 57.5027 530.382 58.5857 528.615 58.875C528.29 58.9279 528.004 59.1043 527.81 59.3724C527.616 59.6405 527.539 59.9651 527.592 60.2932C527.687 60.8752 528.17 61.2986 528.752 61.3268C527.987 61.3198 527.436 61.1998 527.302 61.1363C526.692 60.8329 525.951 61.0799 525.644 61.6866C525.344 62.2969 525.591 63.0378 526.202 63.3447C526.346 63.4152 526.533 63.4823 526.752 63.5422L531.754 78.1225C528.145 81.0682 522.794 85.5273 517.061 90.9248L510.697 78.2284C511.727 78.0379 512.556 77.8191 513.092 77.6639C513.41 77.5722 513.671 77.3641 513.83 77.0783C513.988 76.789 514.027 76.4539 513.936 76.1399C513.749 75.4873 513.064 75.1063 512.405 75.2933C509.028 76.2705 500.661 77.8579 495.912 71.4621C493.845 68.6787 492.988 59.8945 492.871 52.4368C498.128 53.3258 508.411 55.0297 516.102 55.0297H516.109Z" fill="#EEE4F4"/>
<path d="M526.685 285.239C526.255 285.239 525.852 285.352 525.5 285.546L525.489 285.538H525.486L481.205 259.44C481.159 258.135 480.087 257.083 478.771 257.083C477.455 257.083 476.333 258.177 476.333 259.521C476.333 260.234 476.64 260.872 477.13 261.32L469.059 317.567C468.173 317.934 467.545 318.805 467.545 319.821C467.545 321.165 468.639 322.259 469.983 322.259C471.14 322.259 472.11 321.448 472.357 320.361L511.17 308.042C511.604 308.437 512.179 308.684 512.81 308.684C514.154 308.684 515.248 307.591 515.248 306.247C515.248 305.894 515.17 305.559 515.036 305.255L515.043 305.248L526.406 290.1C526.498 290.111 526.59 290.118 526.681 290.118C528.026 290.118 529.119 289.024 529.119 287.68C529.119 286.336 528.026 285.242 526.681 285.242L526.685 285.239ZM505.434 294.086L483.152 263.455L523.799 287.408L505.434 294.086ZM513.029 303.819C512.958 303.812 512.884 303.809 512.81 303.809C512.711 303.809 512.613 303.816 512.517 303.826L512.51 303.816L506.944 296.161L523.203 290.252L513.029 303.816V303.819ZM495.288 297.773L483.445 268.055L503.017 294.961L495.288 297.769V297.773ZM494.667 302.888C494.667 302.888 494.656 302.906 494.649 302.913H494.642L489.89 302.362L493.884 300.913L494.67 302.888H494.667ZM492.967 298.616L486.221 301.068H486.207C485.992 300.895 485.745 300.754 485.481 300.659L481.223 269.145L492.967 298.616ZM483.05 301.124C482.542 301.572 482.217 302.225 482.217 302.955C482.217 303.202 482.256 303.442 482.323 303.668L482.316 303.675L471.793 315.835L478.612 268.319L483.046 301.114V301.124H483.05ZM484.151 305.34C484.313 305.375 484.486 305.393 484.659 305.393C485.431 305.393 486.119 305.029 486.567 304.469H486.574L494.353 305.368H494.364C494.745 306.225 495.598 306.822 496.593 306.822C497.387 306.822 498.089 306.441 498.537 305.851H498.551L506.891 306.818L473.779 317.327L484.151 305.343V305.34ZM498.83 303.4H498.819C498.488 302.652 497.793 302.105 496.96 301.974L496.201 300.069L504.527 297.043L510.097 304.698L498.83 303.4Z" fill="#EEE4F4"/>
<path d="M121.306 236.322C120.353 236.322 119.478 236.664 118.797 237.232C118.699 237.176 118.596 237.119 118.498 237.066C117.898 236.749 117.15 236.975 116.825 237.571C116.508 238.171 116.734 238.918 117.333 239.243C117.379 239.268 117.425 239.292 117.471 239.317C117.471 239.342 117.478 239.367 117.478 239.391V239.405C117.422 239.673 117.386 239.952 117.386 240.234C117.386 242.393 119.143 244.154 121.306 244.154C123.468 244.154 125.225 242.397 125.225 240.234C125.225 238.072 123.468 236.315 121.306 236.315V236.322Z" fill="#EEE4F4"/>
<path d="M131.85 280.342C129.691 280.342 127.93 282.099 127.93 284.262C127.93 285.249 128.301 286.149 128.904 286.84C128.632 287.232 128.347 287.631 128.05 288.026C127.849 288.29 127.765 288.615 127.811 288.939C127.856 289.267 128.026 289.557 128.29 289.754C128.505 289.917 128.77 290.005 129.031 290.005C129.426 290.005 129.786 289.825 130.019 289.511C130.361 289.056 130.696 288.59 131.014 288.124L131.035 288.093C131.296 288.149 131.568 288.177 131.846 288.177C134.005 288.177 135.766 286.42 135.766 284.258C135.766 282.095 134.009 280.339 131.846 280.339L131.85 280.342Z" fill="#EEE4F4"/>
<path d="M282.641 130.55C282.662 130.55 282.683 130.55 282.708 130.55C283.167 130.55 283.551 130.197 283.586 129.731C283.869 125.942 283.869 120.058 283.869 119.998C283.869 119.511 283.474 119.116 282.987 119.116C282.5 119.116 282.105 119.511 282.105 119.998C282.105 120.058 282.105 125.875 281.826 129.601C281.791 130.087 282.154 130.511 282.641 130.546V130.55Z" fill="#EEE4F4"/>
<path d="M346.148 122.089C346.148 122.089 346.127 122.089 346.116 122.089C345.63 122.107 345.249 122.516 345.266 123.003C345.446 128.125 346.942 137.329 347.005 137.721C347.076 138.155 347.45 138.462 347.873 138.462C347.919 138.462 347.969 138.458 348.018 138.451C348.498 138.373 348.826 137.918 348.745 137.439C348.73 137.343 347.203 127.956 347.027 122.946C347.009 122.47 346.617 122.096 346.145 122.096L346.148 122.089Z" fill="#EEE4F4"/>
</svg>
